<?xml version="1.0" encoding="utf-8"?>
<!-- Generator: Adobe Illustrator 19.0.0, SVG Export Plug-In . SVG Version: 6.00 Build 0)  -->
<svg version="1.1" id="Layer_1" xmlns="http://www.w3.org/2000/svg" xmlns:xlink="http://www.w3.org/1999/xlink" x="0px" y="0px"
	 width="104.7px" height="108px" viewBox="0 0 104.7 108" style="enable-background:new 0 0 104.7 108;" xml:space="preserve"><path d="M66.2,19.2c3.5-4.5,6-10.4,5.2-16.4C66.2,3.1,60,6.3,56.2,10.5c-3.2,3.7-6.2,9.9-5.5,15.7C56.7,26.9,62.4,23.7,66.2,19.2
	 M71.4,27.7c-8.4-0.5-15.7,4.7-19.6,4.7c-4,0-10.2-4.5-16.9-4.5c-8.7,0.2-16.6,5-21.1,12.9c-8.9,15.7-2.5,38.8,6.5,51.4
	c4.2,6.2,9.4,13.2,16.1,12.9c6.5-0.2,8.9-4.2,16.6-4.2c7.7,0,9.9,4.2,16.9,4c7-0.2,11.4-6.2,15.7-12.7c5-7.2,7-14.2,7-14.4
	c-0.2-0.2-13.7-5.2-13.7-20.6c-0.2-12.9,10.4-19.1,10.9-19.4C84.1,28.9,74.6,27.9,71.4,27.7"/></svg>
