<?xml version="1.0" encoding="utf-8"?>
<!-- Generator: Adobe Illustrator 19.0.0, SVG Export Plug-In . SVG Version: 6.00 Build 0)  -->
<svg version="1.1" id="Layer_1" xmlns="http://www.w3.org/2000/svg" xmlns:xlink="http://www.w3.org/1999/xlink" x="0px" y="0px"
	 width="68.2px" height="70.5px" viewBox="0 0 68.2 70.5" style="enable-background:new 0 0 68.2 70.5;" xml:space="preserve"><g>
	<path style="fill:#545454;" d="M56.6,56.2H26.4c-3.7,0-6.9-2.6-7.7-6.2L12,20.4c-0.4-1.7-1.8-2.8-3.5-2.8H2.4v-4.3h6.1
		c3.7,0,6.9,2.6,7.7,6.2l6.6,29.6c0.4,1.7,1.8,2.8,3.5,2.8h30.2c1.7,0,3.1-1.2,3.5-2.8l3.3-14.9l4.2,0.9l-3.3,14.8
		C63.5,53.6,60.2,56.2,56.6,56.2"/>
	<rect x="16" y="24.7" style="fill:#545454;" width="21.5" height="4.3"/>
	<path style="fill:#545454;" d="M29.6,61.9c2.4,0,4.3,1.9,4.3,4.3c0,2.4-1.9,4.3-4.3,4.3c-2.4,0-4.3-1.9-4.3-4.3
		C25.3,63.9,27.3,61.9,29.6,61.9"/>
	<path style="fill:#545454;" d="M52.6,61.9c2.4,0,4.3,1.9,4.3,4.3c0,2.4-1.9,4.3-4.3,4.3c-2.4,0-4.3-1.9-4.3-4.3
		C48.3,63.9,50.2,61.9,52.6,61.9"/>
	<path style="fill:#00D0D0;" d="M54.6,33.6c-1.4,0-2.6-0.5-3.6-1.5L39,20.6c-1.5-1.5-2.3-3.5-2.3-5.6V5.7c0-2,1.6-3.6,3.6-3.6h9.3
		c2.1,0,4,0.8,5.5,2.3l11.6,12.1c0.9,0.9,1.5,2.2,1.5,3.5c0,1.3-0.5,2.6-1.5,3.5l-8.6,8.6C57.2,33.1,55.9,33.6,54.6,33.6 M41,6.4V15
		c0,0.9,0.4,1.8,1,2.5l12,11.6c0.2,0.2,0.9,0.2,1.1,0l8.6-8.6c0.1-0.1,0.2-0.2,0.2-0.5c0-0.3-0.1-0.4-0.2-0.5L52.1,7.4
		c-0.6-0.6-1.5-1-2.5-1H41z"/>
</g></svg>
