<?xml version="1.0" encoding="utf-8"?>
<!-- Generator: Adobe Illustrator 19.0.0, SVG Export Plug-In . SVG Version: 6.00 Build 0)  -->
<svg version="1.1" id="Layer_1" xmlns="http://www.w3.org/2000/svg" xmlns:xlink="http://www.w3.org/1999/xlink" x="0px" y="0px"
	 width="80px" height="80px" viewBox="0 0 80 80" style="enable-background:new 0 0 80 80;" xml:space="preserve"><path style="fill-rule:evenodd;clip-rule:evenodd;fill:#02BAB9;" d="M33,51.9c0-4.2,0-8.4,0-12.6c0-0.7-0.2-0.9-0.9-0.9
	c-1.3,0.1-2.6,0-3.9,0c-0.5,0-0.7-0.1-0.7-0.7c0-2.6,0-5.2,0-7.9c0-0.5,0.1-0.7,0.7-0.7c1.3,0,2.7,0,4,0c0.8,0,0.9-0.2,0.9-1
	c0-2,0-4,0-6c0.1-2.4,0.7-4.7,2.2-6.7c1.8-2.5,4.5-3.7,7.5-3.8c3.1-0.1,6.2-0.1,9.3-0.1c0.4,0,0.6,0.2,0.6,0.6c0,2.7,0,5.3,0,8
	c0,0.5-0.2,0.6-0.6,0.6c-1.5,0-3,0-4.5,0c-2,0-3.2,1-3.3,3c-0.1,1.6,0,3.2-0.1,4.7c0,0.6,0.3,0.5,0.7,0.5c2.3,0,4.5,0,6.8,0
	c0.7,0,0.9,0.1,0.8,0.8c-0.3,2.6-0.5,5.3-0.8,7.9c-0.1,0.6-0.3,0.7-0.9,0.7c-1.8,0-3.6,0-5.4,0c-1.3,0-1.2-0.2-1.2,1.1
	c0,8.2,0,16.5,0,24.7c0,0.9-0.2,1.1-1.1,1.1c-3.1-0.1-6.1-0.1-9.2,0c-0.9,0-1-0.3-1-1C33,60.2,33,56.1,33,51.9"/>
<circle style="fill:none;stroke:#02BAB9;stroke-miterlimit:10;" cx="40" cy="40" r="39"/></svg>
