<?xml version="1.0" encoding="utf-8"?>
<!-- Generator: Adobe Illustrator 19.0.0, SVG Export Plug-In . SVG Version: 6.00 Build 0)  -->
<svg version="1.1" id="Layer_1" xmlns="http://www.w3.org/2000/svg" xmlns:xlink="http://www.w3.org/1999/xlink" x="0px" y="0px"
	 width="1075.7px" height="390px" viewBox="0 0 1075.7 390" style="enable-background:new 0 0 1075.7 390;" xml:space="preserve">
<path d="M593.3,226.9c-7.7-4.8-14.8-7.4-21.6-8c-4.7-0.6-7.7-1.1-8.8-1.7c-0.3-1.1,2.4-3.6,7.9-7.6c17.3-12.3,34.3-21.7,51-28.1
	c3.1-1.4,4.3-3.5,3.8-6.3c-0.6-2.8-2.8-5.5-6.7-8c-6.7-4.8-15.1-4.5-25.1,0.8c-2,1.1-3.5,2.2-4.8,3.1c-1.3,1-1.8,1.8-1.5,2.3
	c-0.3,0-0.7,0.1-1.3,0.4c-0.6-0.3-2.9,0.5-6.9,2.3c-4,1.8-7.6,3.7-10.7,5.7c-1.1,0.8-3.1,2.1-5.8,3.8c-0.8,0.6-1.6,1.2-2.3,1.9
	c-0.7,0.7-1.1,1.2-1.1,1.5c0.3,0.6-0.5,1.4-2.3,2.5c-1.8,1.1-3.3,1.7-4.4,1.7c-1.7,0-4.4,1.5-8.2,4.6c-3.8,3.1-7.6,6-11.5,8.8
	l-5.4,4.2l0.7,5.5c-0.5,0.2-1.2,0.5-1.9,0.8c-1.4,0.6-2.5,1.1-3.4,1.7c-0.8,0.6-1.3,1-1.3,1.3c0.1,0.2,0.2,0.2,0.5,0.3
	c-1.5,0.7-2.8,1.3-3.7,1.8c0.5-0.4,0.7-0.8,0.7-1.2c0-0.8-0.5-1-1.5-0.4c-1,0.6-2.4,1-4.2,1.2c-1.8,0.3-4.8,1.3-9,3
	c-3.6,1.4-7.7,3.3-12.3,5.7c-4.6,2.4-8.3,4.3-11.1,5.7c-2.8,1.4-4.4,2-4.8,1.7c-0.4-0.3-0.7-0.4-0.8-0.2c-0.1,0.1-0.1,0.5,0.2,1.1
	c0.8,0.8,0.8,1.3,0,1.5c-0.8,0.1-3.3,0.4-7.5,0.6l-39.3,16.8l45.6-30.2c14.5-11.2,22-20.2,22.6-26.9c0.3-2.5-0.2-5.5-1.5-9
	c-1.3-3.5-2.6-5.7-4-6.5c-0.8-0.6-1.5-1.9-2.1-4.2c-0.6-2.2-2.4-4.8-5.4-7.5c-3.1-2.8-6.4-4.9-10-6.3c-2.2-0.8-4-1.2-5.2-1.1
	c-1.3,0.1-4,1.2-8.2,3.1c-12.8,6.2-24.1,12.9-33.9,20.2c-2.8,2.2-7.1,6.6-13,13c-5.8,6.4-8.8,10.1-8.8,10.9c0,0.6-1,2-2.9,4.2
	c-2.1,2.5-3.8,5.7-5.1,9.5c-0.2,0-0.5,0.1-0.7,0.1h-2.9c1.1-0.6,1.4-1.2,0.8-1.9c-0.6-0.7-0.1-1.3,1.5-1.9c1.5-0.6,2.3-1.3,2.3-2.1
	c0-0.8-0.5-1-1.5-0.4c-1,0.6-2.4,1-4.2,1.2c-1.8,0.3-4.8,1.3-9,3c-3.6,1.4-7.7,3.3-12.3,5.7c-4.6,2.4-8.3,4.3-11.1,5.7
	c-2.8,1.4-4.4,2-4.8,1.7c-0.4-0.3-0.7-0.4-0.8-0.2c-0.1,0.1-0.1,0.5,0.2,1.1c0.8,0.8,0.8,1.3,0,1.5c-0.8,0.1-3.3,0.4-7.5,0.6
	l-39.3,16.8l45.6-30.2c14.5-11.2,22-20.2,22.6-26.9c0.3-2.5-0.2-5.5-1.5-9c-1.3-3.5-2.6-5.7-4-6.5c-0.8-0.6-1.5-1.9-2.1-4.2
	c-0.6-2.2-2.4-4.8-5.4-7.5c-3.1-2.8-6.4-4.9-10-6.3c-2.2-0.8-4-1.2-5.2-1.1c-1.3,0.1-4,1.2-8.2,3.1c-12.8,6.2-24.1,12.9-33.9,20.2
	c-2.8,2.2-7.1,6.6-13,13c-5.8,6.4-8.8,10.1-8.8,10.9c0,0.6-1,2-2.9,4.2c-0.7,0.9-1.4,1.8-2,2.8c-5.4,2.2-8.3,3.3-8.5,3
	c-0.6,0-1.1,0.1-1.7,0.4c-0.6,0.3-1.3,0.7-2.1,1.3c-0.8,0.6-1.5,1-2.1,1.3c-0.6-0.3-0.4-2.1,0.4-5.5l0.4-3c-1.1-0.8,0.3-5,4.2-12.6
	c3.9-7.6,8.1-14.5,12.5-21c2.2-3.1,3.4-5.1,3.6-6.1c0.1-1-0.5-2.3-1.9-4c-1.9-2.2-6-4.8-12.1-7.8c-6.1-2.9-10-4.1-11.7-3.6
	c-1.7,0.3-3.3,1.5-4.8,3.6c-1.5,2.1-5.3,5.1-11.3,9c-6,3.9-9.6,6.7-10.9,8.2c-1.3,1.5-2,2-2.3,1.5c-0.6,0.3-1.1,0.5-1.7,0.6
	c-0.6,0.1-1.3,0.5-2.1,1.1c-2.2,1.4-3.2,2.5-2.9,3.3c0.3,0.6,0.4,0.9,0.2,1.1c-0.1,0.1-0.4,0.1-0.6-0.2c-0.8-0.6-2.1-0.2-3.8,1.1
	c-1.7,1.3-3.8,2.9-6.3,4.8l-4.2,3l1.7-3.8c1.1-2.5,2.4-6.1,4-10.7c1.5-4.6,2.9-7.5,4-8.6c1.1-1.4,1.3-3.1,0.6-5
	c-0.7-1.9-2.3-3.8-4.8-5.5c-2.5-2-6.3-3.9-11.3-5.9c-5-2-8.1-2.7-9.2-2.1c-1.4,0.6-3.1,2.9-5,7.1c-1.9,4.2-3.5,7.4-4.8,9.5
	c-1.3,2.1-1.8,3.6-1.5,4.6c0.3,1-0.9,5.1-3.6,12.4c-2.7,7.3-4.5,11.6-5.6,13c-1.1,1.4-2.7,4.1-4.6,8.2c-2,4-3.7,7.4-5.2,10.1
	c-1.5,2.7-4.4,8.5-8.6,17.4c-4.2,8.9-5.5,13.8-4,14.7c1.5,0.8,1.5,1-0.2,0.6c-1.7-0.4-2.9,0.8-3.7,3.6c0,0.3-0.1,0.7-0.4,1.3
	c-0.8,1.7-1.4,2-1.7,0.8l-0.8-0.8c-0.8,0.3-1.3,2.4-1.3,6.3v5.5c0.3,0.6,2.1,2.5,5.5,5.9c3.3,3.4,6,5.7,7.9,7.1
	c3.9,3.1,7.2,3.6,10,1.7c2.8-2,5.3-6.6,7.5-13.9c1.4-4.8,3.1-8.4,5-11.1c1.9-2.7,3.2-5.1,3.8-7.4c0.6-2.2,2.6-6.8,6.1-13.6
	c3.5-6.9,9.6-13.9,18.2-21.2c17-14.3,26.2-20.8,27.6-19.7c0.6,0.3,0.7,1.3,0.4,2.9c-1.7,7.6,2.6,16.7,12.9,27.3
	c4.5,4.5,10.2,7.8,17.2,10.1c1.4,0.3,3.4-0.4,6.1-1.9c0.7-0.4,1.3-0.8,1.9-1.2c-0.1,1-0.3,2-0.4,3.1c-0.8,7.3-1.1,11.6-0.8,13
	c2.2,7,6.3,12.7,12.1,17.2c5.8,4.5,12.3,6.7,19.2,6.7c3.6,0,12.8-2.5,27.6-7.6c14.8-5,23.8-8.8,27.2-11.3c3.6-2.8,12-7.3,25.1-13.4
	c5.1-2.4,8.7-4.2,11-5.4c0,0.3-0.1,0.5-0.1,0.8c-0.8,7.3-1.1,11.6-0.8,13c2.2,7,6.3,12.7,12.1,17.2c5.8,4.5,12.3,6.7,19.2,6.7
	c3.6,0,12.8-2.5,27.6-7.6c14.8-5,23.8-8.8,27.2-11.3c3.6-2.8,12-7.3,25.1-13.4c8.4-3.9,12.9-6.3,13.6-7.1c0.7-0.8,3-2.4,6.9-4.6
	c1.4-0.8,2.6-1.5,3.8-2.1c1-0.6,1.9-1.2,2.6-1.8c1.4,2.6,3.3,4.9,5.7,6.8c0.8,0.8,3.8,1.3,9,1.5c5.2,0.1,11.1-0.1,17.8-0.6h3.1
	c1,0,1.7,0.1,2.1,0.4c0.4,0.3,0.7,0.6,0.8,0.8c0.1,0.3,0.2,0.7,0.2,1.3c-0.3,0.6-0.4,1-0.4,1.3c0,0.3,1-0.1,2.9-1.3
	c2-1.4,3.9-2,5.9-1.7c0.8,0,1.4,0.1,1.7,0.4l-2.9,1.3c-7.2,3.3-15.1,7.6-23.4,12.6c-5.8,3.4-9.9,5.3-12.1,5.9
	c-1.7,0.3-2-0.3-0.8-1.7c0-1.4-2.1-0.6-6.3,2.5c-2.8,2.2-4.7,3.3-5.8,3.3c-0.6,0-0.9,0.8-1,2.5c-0.1,1.7,0.1,3.7,0.6,6.1
	c0.6,2.4,1.4,4.4,2.5,6.1c1.4,2.8,3.5,5.1,6.3,6.9c2.8,1.8,7.8,2.5,15.1,1.9c15.9-0.8,31.4-7.6,46.4-20.1
	c9.5-8.1,12.4-16.5,8.8-25.2C605.8,236.1,601,231.6,593.3,226.9 M300.7,244.1c-0.3-0.3,2-3.5,6.9-9.6c4.9-6.2,7.6-9.2,8.2-9.2
	c0.8,0,1-0.4,0.4-1.3c-0.3-0.6,0.8-2.2,3.1-4.8c2.4-2.6,5.8-5.9,10.3-9.9c4.5-3.9,9.1-7.4,13.8-10.5c8.9-5.9,13.4-7.8,13.4-5.9
	c0.3,2.5-7.5,9.8-23.4,21.8c-5.9,4.8-8.6,7.4-8.4,7.8c0.3,0.4-1.8,2.2-6.3,5.2c-0.8,0.6-2.8,2.3-5.9,5c-3.1,2.8-5.8,5.4-8.2,7.8
	C302.3,242.9,301,244.1,300.7,244.1 M422,244.1c-0.3-0.3,2-3.5,6.9-9.6c4.9-6.2,7.6-9.2,8.2-9.2c0.8,0,1-0.4,0.4-1.3
	c-0.3-0.6,0.8-2.2,3.1-4.8c2.4-2.6,5.8-5.9,10.3-9.9c4.5-3.9,9.1-7.4,13.8-10.5c8.9-5.9,13.4-7.8,13.4-5.9
	c0.3,2.5-7.5,9.8-23.4,21.8c-5.9,4.8-8.6,7.4-8.4,7.8c0.3,0.4-1.8,2.2-6.3,5.2c-0.8,0.6-2.8,2.3-5.9,5c-3.1,2.8-5.8,5.4-8.2,7.8
	C423.6,242.9,422.3,244.1,422,244.1 M590.2,245.3c-2.8,5.3-10,11.1-21.7,17.2c-6.7,3.4-10.3,4.8-10.9,4.2c0.8-0.8,1.7-1.6,2.5-2.3
	c0.8-0.7,1.8-1.3,2.9-1.9c3.9-2.5,7.9-5.5,12.1-9c4.2-3.5,7.9-6.1,11.3-7.8c2.5-1.4,3.9-2,4.2-1.9
	C590.9,244,590.7,244.5,590.2,245.3"/>
<path d="M837,193.2c2.8-3.1,1.5-6.8-3.8-11.3c-3.1-2.8-8.5-4.9-16.3-6.3c-3.9-0.8-7.9-0.2-11.9,1.9c-4,2.1-7.5,5.5-10.2,10.3
	c-1.7,3.1-3.1,4.6-4.2,4.6c-2.8-0.3-4.2,0.1-4.2,1.3c0.6,0.8,1.3,0.8,2.1,0v0.4c-0.3,0.3-0.7,0.8-1.3,1.7c-1.7,2.5-2.9,3.8-3.8,3.8
	c-1.1,0-3.1,1.4-5.8,4.2c-2.8,2.8-4.8,5.2-5.9,7.1c-1.1,2.2-2.1,3.2-2.9,2.7c-0.8-0.4-1.8,0.1-2.9,1.5c-0.8,0.8-1.1,1.3-0.8,1.3
	l0.8-0.4h1.3c0.3,0,0.4,0.1,0.4,0.4c0,0.8-0.8,1.3-2.5,1.3c-1.1,0-2.2,0.4-3.1,1.1c-1,0.7-1.8,1.5-2.3,2.3c-0.6,0.8-0.6,1.4,0,1.7
	l-0.8,0.4c-1.4-0.3-3.1,0.8-5.2,3.2c-2.1,2.4-4.1,4.4-6.1,6.1c-2,1.7-2.5,3.1-1.7,4.2l0.4,0.4c-0.8-0.6-2.9,0.4-6.3,2.7
	c-3.4,2.4-5.3,3-5.9,1.9c1.4-5.3,5.7-15.3,13-29.9c7.2-14.7,11.2-26.7,11.7-36.2c0.3-3.1-0.6-5.6-2.5-7.5c-4.7-4.2-11.2-7-19.2-8.4
	c-5.9,8.1-11,18.2-15.5,30.4c-4.2,11.4-7.9,19.8-11,25.4c-2.9,0.4-8.4,3-16.5,7.8c-4.7,2.5-7.5,3.9-8.4,4.2
	c-2.5,0.6-5.2,1.7-7.9,3.4c-1.4,0.6-2.4,0.8-2.9,0.8l0.4-0.4c2-2.5,1.7-3.8-0.8-3.8c-1.4,0-2.5,0.8-3.3,2.5
	c-0.8,1.7-2.1,2.5-3.8,2.5c-1.7,0-4.2,0.8-7.5,2.5c-3.3,1.7-5.3,2.4-5.8,2.1c-0.6-0.6,0.7-4.1,3.8-10.5c3-6.4,6.1-12,9.2-16.8
	c4.4-6.7,20-35.4,23-40.1c8.4-12.9,14.4-21.8,18-26.6c3.6-4.9,6.5-7.6,8.8-8.2c0.8-0.3,2.8-0.9,5.8-1.9c3.1-1,5.3-1.6,6.7-1.9
	c5.6-1.7,9.9-3.2,13-4.6c1.1-0.6,3.1-1.4,5.9-2.5c1.7-0.6,2.9-1,3.7-1.3c2.4-0.8,3-1.4,1.9-2l20.7-6l14.2-8l-42.7,6.3
	c-1.7,0-3.8-0.1-6.5-0.2c-2.7-0.1-4.8-0.2-6.5-0.2c-1.7,0-2.5-0.1-2.5-0.4c1.7-3.9,9.5-21.6,9.6-23.5s-0.4-3.8-1.5-6.1
	c-1.7-2.5-4-4.5-6.9-5.9c-2.9-1.4-5.1-2.7-6.5-3.8c-2.5-2-4.5-2.8-5.9-2.5c-1.4,0.3-2.9,2-4.6,5c-3.6,6.2-14.8,27.2-19.8,33.3
	c-5,6.2-8.2,9.4-9.6,9.6c-4.2,1.1-21.8,3.9-52.7,8.4l-15.1,2.1l1.7,8c1.7,7.8,4.6,12.9,8.8,15.1c3.4,1.7,12.8,0.6,28.5-3.4
	c5.6-1.1,8.8-1.5,9.6-1.3c0.3,0,0.3,0.3,0.2,0.8c-0.1,0.6-0.4,1.3-0.8,2.1c-0.4,0.8-0.9,1.8-1.5,2.9c-2.2,3.7-3.7,6.1-4.4,7.4
	c-0.7,1.3-1.3,2.1-1.7,2.5c-0.4,0.4-1,1.8-1.9,4.2c-0.8,2.4-1.6,3.6-2.3,3.6c-0.7,0-1,0.4-0.8,1.3c0.1,0.8-1.1,2.5-3.8,5
	s-15.7,27.3-15.5,28.6c0.1,1.3-0.3,1.9-1.3,1.9c-1,0-1.2,0.2-0.6,0.6c0.6,0.4,0.1,1.5-1.3,3.1c-1.4,1.7-1.8,2.9-1.3,3.6
	c0.6,0.7,0.2,1.3-1.1,1.7c-1.3,0.4-1.6,1.3-1,2.5c0.6,1.3,0.3,2.5-0.8,3.8c-1.1,1.3-1.3,1.9-0.6,1.9c0.7,0,0.3,0.6-1,1.7
	c-1.4,1.1-2.4,3.8-2.9,8c-0.6,4.2-0.6,7.8,0,10.9c1.7,5.3,5.1,10.7,10.3,16.2c5.1,5.5,9.7,8.2,13.6,8.2c1.4,0,4.4-1.3,9-4
	c4.6-2.7,8-5.1,10.3-7.4c2.2-2.2,7.1-6.9,14.6-13.9c1.7-1.7,5.3-4.8,10.9-9.4c5.6-4.6,10.7-8.9,15.3-12.8c1.9-1.6,3.4-2.9,4.6-3.9
	c0.1,0.1,0.2,0.2,0.3,0.4c0.7,0.7,0.5,3-0.6,6.9c-1.1,3.9-1.8,8.1-2.1,12.6c0,3.3,0.2,5.7,0.6,7.1c0.4,1.4,1.7,3.9,4,7.5
	c3.1,5.3,6.5,9.2,10.5,11.7c12,8.1,24.4,5.6,37.2-7.5c14.5-15.4,21.5-20.5,20.9-15.5c-0.3,0.6-0.6,1.3-0.8,2.1
	c-0.8,2.8-1.1,4.5-0.8,5.2c0.3,0.7-0.7,2.2-2.9,4.6c-2.2,2.4-3.2,4-2.9,4.8c0.8,2-0.5,7-4,15.1c-3.5,8.1-6.3,12.8-8.6,14.2
	c-1.4,1.1-1.7,2.2-0.8,3.1c0.8,1,0.5,3.6-1,8c-1.5,4.3-2.4,7-2.5,8c-0.1,1-1.1,2-2.9,3.1c-1.8,1.1-3,2.7-3.5,4.6v2.1l0.8-0.8
	c1.1-1.4,1.7-1.3,1.7,0.4c-0.3,1.4-0.8,3.6-1.7,6.7c-1.4,5.6-1.7,8.4-0.8,8.4l0.8-0.4c0.3-0.3,0.5-0.4,0.6-0.4
	c0.1,0,0.2,0.3,0.2,0.8c-0.3,0.8-0.8,1-1.7,0.6c-0.8-0.4-1.5,0-1.9,1.3c-0.4,1.3-1.2,1.9-2.3,1.9s-2.2,1.2-3.3,3.5
	c-1.1,2.4-1.5,4.4-1.3,6.1c0.3,2-0.1,3.5-1,4.6c-1,1.1-1.3,2.2-0.8,3.4c0.4,1.1,0.2,1.7-0.6,1.7c-0.3,0-0.5,0.7-0.6,2.1
	c-0.1,1.4-0.1,2.8,0.2,4.2c0.3,0.3,0,1.7-0.8,4.2l-1.3,3.8c0,0-3.4,11.8-0.4,15.5c0,0,7.5,1.8,16.4-5.6c0,0,6.8-6.1,4.6-10.2
	l-0.3-0.6c0-2.3,1.4-4.9,2.8-7.9c0.8-1.7,1.7-4,2.5-7.1c10.3-18.7,24.1-46.1,41.4-82.1c17.3-36,28.3-61.2,33-75.4
	C836.5,194.3,836.7,193.8,837,193.2 M753.1,120.5c-0.2,0.1-0.3,0.1-0.4,0.1L753.1,120.5z M783.9,236.9c-1.1,0.8-1.7,0.7-1.7-0.4
	c0-1.1,0.4-1.8,1.3-2.1c0.3-0.3,0.6-0.4,0.8-0.4h0.4C785.8,234.6,785.6,235.5,783.9,236.9"/>
<path d="M1066.6,224.3c-0.8-0.3-2.5-0.3-5-0.2c-2.5,0.1-3.8,0.5-3.8,1.1c0,0.6-0.6,0.8-1.7,0.8c-1.1,0-3.5,0.3-7.1,0.8h-2.9
	c1.1-0.6,1.4-1.2,0.8-1.9c-0.6-0.7-0.1-1.3,1.5-1.9c1.5-0.6,2.3-1.3,2.3-2.1c0-0.8-0.5-1-1.5-0.4c-1,0.6-2.4,1-4.2,1.2
	c-1.8,0.3-4.8,1.3-9,3c-3.6,1.4-7.7,3.3-12.3,5.7c-4.6,2.4-8.3,4.3-11.1,5.7c-2.8,1.4-4.4,2-4.8,1.7c-0.4-0.3-0.7-0.4-0.8-0.2
	c-0.1,0.1-0.1,0.5,0.2,1.1c0.8,0.8,0.8,1.3,0,1.5c-0.8,0.1-3.3,0.4-7.5,0.6l-39.3,16.8l45.6-30.2c14.5-11.2,22-20.2,22.6-26.9
	c0.3-2.5-0.2-5.5-1.5-9c-1.3-3.5-2.6-5.7-4-6.5c-0.8-0.6-1.5-1.9-2.1-4.2c-0.6-2.2-2.4-4.8-5.4-7.5c-3.1-2.8-6.4-4.9-10-6.3
	c-2.2-0.8-4-1.2-5.2-1.1c-1.3,0.1-4,1.2-8.2,3.1c-12.8,6.2-24.1,12.9-33.9,20.2c-2.8,2.2-7.1,6.6-13,13c-5.8,6.4-8.8,10.1-8.8,10.9
	c0,0.6-1,2-2.9,4.2c-0.2,0.2-0.3,0.5-0.5,0.7c-1,0.6-2.2,1.3-3.7,2.2c-4.5,2.5-7.2,3.9-8.4,4.2c-0.8,0.3-1.1,0-0.8-0.8
	c0-0.6-0.8-0.7-2.5-0.4c-1.4,0.3-2.5,0.8-3.3,1.5c-0.8,0.7-1.3,1.4-1.3,2.1c0,0.7,0.3,1.2,0.8,1.5c0.3,0.3,0.3,0.6,0.2,0.8
	c-0.1,0.3-0.4,0.6-0.8,1.1c-0.4,0.4-0.9,0.9-1.5,1.5c-1.1,0.6-2,1.1-2.5,1.7c-2,1.1-2.7,1.1-2.1,0c0-0.3-0.2-0.5-0.6-0.6
	c-0.4-0.1-0.9-0.2-1.5-0.2c-0.6,0-1.1,0.1-1.5,0.2c-0.4,0.1-0.6,0.4-0.6,0.6c0.3,0.6,0.8,0.8,1.7,0.8c0.3,0,0.6,0.1,0.8,0.4
	c0.8,0.8,0.6,1.5-0.8,2.1c-0.6,0-1-0.1-1.3-0.4c0.3-0.6,0-0.8-0.8-0.8c-0.8,0-1.1-0.5-0.8-1.5c0.3-1-0.1-1-1.1,0
	c-1,1-2.2,1.2-3.5,0.6c-0.6-0.3-1-0.4-1.3-0.4c-0.6,0-0.6,0.3,0,0.8c0.6,0.8,0.6,1.5,0,2.1c-0.6,0.6-0.6,1.1,0,1.7
	c0.3,0.6,0.3,0.9,0.2,1.1c-0.1,0.1-0.5,0.1-1.1-0.2c-1.1-0.3-1.7-0.8-1.7-1.7c0-2-2.2-1.1-6.7,2.5c-3.4,3.1-4.8,4.9-4.2,5.5
	c-0.3,0.3-0.8,0.6-1.7,0.8c-1.7,0-3.4,0.8-5.2,2.5c-1.8,1.7-2.4,2.9-1.9,3.8c0.3,0.3,0.4,0.5,0.4,0.6c0,0.1-0.3,0.1-0.8-0.2
	c-0.8-0.6-3,0.5-6.5,3.2c-3.5,2.7-5.4,3.8-5.7,3.6c-1.1-0.8,0.9-8,6.1-21.4c5.1-13.4,10.4-24.9,15.7-34.4
	c3.6-6.7,13.1-29.2,28.4-67.6c1.4-3.6,3.4-7.6,5.9-11.8c4.2-7,7-13,8.4-18.1c1.1-3.1,2.1-5.1,2.9-6.1c0.8-1,1.4-2.8,1.7-5.5
	c0.3-2.6-0.6-5.4-2.5-8.2c-1.4-2.2-4.3-4.8-8.6-7.6c-4.3-2.8-8-4.5-11.1-5c-1.4-0.3-2.3-0.2-2.7,0.2c-0.4,0.4-0.8,1.6-1,3.6
	c-0.8,4.2-10,22.1-27.6,53.7c-3.4,6.2-8.2,16.5-14.6,31.1c-6.4,14.5-12,27.8-16.7,39.7c-4.7,11.9-7,18.1-6.7,18.7
	c0.6,0.6,0.5,0.8-0.2,0.8s-1.5,1.1-2.3,3.3v2.1c0.3-0.3,0.5-0.4,0.6-0.2c0.1,0.1,0.2,0.5,0.2,1.1c-0.3,0.6-0.5,1-0.6,1.3
	c-0.1,0.3-0.4,0.3-0.6,0c-0.6-0.3-1.1,0.1-1.7,1.2c-0.6,1.1-0.9,2.3-1,3.6c-0.1,1.3-0.1,2.3,0.2,3.2v0.4c-0.6-0.3-1-0.1-1.3,0.4
	c-1.1,1.1-1.1,2.3,0,3.4c0.6,0.8,0.4,1.3-0.4,1.3c-0.3,0-0.8,1.8-1.7,5.2c-0.8,3.5-1.3,6.7-1.3,9.4c0,3.6,1.6,8.5,4.8,14.5
	c3.2,6,7,11,11.5,14.9c6.4,5.9,12,8.1,16.7,6.7c2.2-0.6,5.6-2.6,10-6.3c4.5-3.6,7.8-6.9,10-9.7c2.2-3.1,3.7-4.6,4.4-4.6
	c0.7,0,4.9-3.8,12.6-11.3c7.7-7.6,13.6-13.1,17.8-16.6c3.4-2.8,6.6-5.7,9.7-8.8c-0.2,1.2-0.3,2.4-0.5,3.6c-0.8,7.3-1.1,11.6-0.8,13
	c2.2,7,6.3,12.7,12.1,17.2c5.8,4.5,12.3,6.7,19.2,6.7c3.6,0,12.8-2.5,27.6-7.6c14.8-5,23.8-8.8,27.2-11.3c3.6-2.8,12-7.3,25.1-13.4
	c8.4-3.9,12.9-6.3,13.6-7.1c0.7-0.8,3-2.4,6.9-4.6c1.4-0.8,2.6-1.5,3.8-2.1C1065.9,227.4,1068,225.2,1066.6,224.3 M878.3,250.4
	c-0.6,0.3-1.1,0.6-1.7,0.8c-0.6,0.3-1.1,0.6-1.7,0.8c0-0.6,0.7-1.4,2.1-2.5c1.4-1.1,2.4-1.7,2.9-1.7
	C880.9,248.1,880.3,249,878.3,250.4 M886.3,244.5c-1.4,0.6-2.2,0.8-2.3,0.6c-0.1-0.1,0.3-0.8,1.5-1.9c0.8-1.1,1.5-1.4,2.1-0.8
	C888.1,243,887.7,243.7,886.3,244.5 M953.2,244.1c-0.3-0.3,2-3.5,6.9-9.6c4.9-6.2,7.6-9.2,8.2-9.2c0.8,0,1-0.4,0.4-1.3
	c-0.3-0.6,0.8-2.2,3.1-4.8c2.4-2.6,5.8-5.9,10.3-9.9c4.5-3.9,9.1-7.4,13.8-10.5c8.9-5.9,13.4-7.8,13.4-5.9
	c0.3,2.5-7.5,9.8-23.4,21.8c-5.9,4.8-8.6,7.4-8.4,7.8c0.3,0.4-1.8,2.2-6.3,5.2c-0.8,0.6-2.8,2.3-5.9,5c-3.1,2.8-5.8,5.4-8.2,7.8
	C954.8,242.9,953.5,244.1,953.2,244.1"/>
<path d="M178.5,148.7c4.1-1.8,11.2-3.7,21.4-5.7c12.8-2.6,21.3-5.7,25.4-9.2c1.5-1.5,2.8-2.2,3.9-2.2c1.2,0,1.5-0.7,0.9-2.2
	c-0.6-2,1-3.7,4.8-4.8c4.4-1.5,5.2-2.5,2.6-3.1c-2.9-0.6-3.4-1.3-1.3-2.2c1.2-0.6,1.7-1.2,1.7-1.8c0.6-2.3-3.9-3.5-13.6-3.5
	c-3.8,0-8.5,0.1-14,0.4c-28,1.5-41.4,3.2-40.2,5.3c0.3,0.3,0.4,0.6,0.4,0.9c-0.3,0.6-1.5,0.6-3.5,0c-4.4-0.9-8-1.3-10.9-1.3
	c-4.7,0-7-0.7-7-2.2c0-0.6,1.9-3.6,5.7-9.2c2.6-3.8,5-9.4,7-16.7c0.3-1.5,0.7-3,1.1-4.6c0.4-1.6,0.8-2.9,1.1-3.9
	c0.3-1,0.4-1.7,0.4-2c0.6-1.2,81.5-13.8,92.2-15.9c10.2-2,17.5-4,21.9-5.7c2.9-1.2,10.1-3.2,21.4-6.1c18.4-4.1,27.5-7.6,27.5-10.5
	c0-1.2,0.7-1.8,2.2-1.8c1.7,0,2.9-1.5,3.5-4.4c0.6-3.2,1.6-4.8,3.1-4.8c1.2,0,1.5-0.6,0.9-1.8c-0.6-0.9,0.4-1.9,3.1-3.1
	c4.4-1.5,3.6-2.2-2.2-2.2c-2-0.3-3.2-0.9-3.5-1.8c0-0.9-4.2-1.5-12.7-1.8c-10.8,0-19.5,0.9-26.2,2.6c-3.8,1.2-4.7,2.2-2.6,3.1
	c1.2,0.3,1.7,0.6,1.7,0.9c0,0.3-1.3,0.4-3.9,0.4c-3.5,0-5.5-0.4-6.1-1.3c-0.6-1.2-2.5-1.5-5.7-0.9c-0.6,0-1.2,0.1-1.7,0.4
	c-2,0.9-2.6,1.5-1.7,1.8l-7.9,0.9c-6.7,0-10.4,0.7-10.9,2.2c-0.6,1.8-1.3,2.6-2.2,2.6c-1.2,0-1.3-0.7-0.4-2.2
	c0.9-1.5-0.7-1.8-4.8-0.9c-0.9,0-2,0.1-3.3,0.4c-1.3,0.3-2.4,0.5-3.3,0.7c-0.9,0.2-1.6,0.2-2.2,0.2c-1.7,0-1.5,0.6,0.9,1.8
	c0.9,0.3,1.5,0.6,1.7,0.9h-3.1c-6.4-1.2-102.5,13.1-137.7,20.7c-12,2.3-22.6,4.2-31.9,5.7l-16.2,2.2l-2.2,12.7
	c-2,13.7,0,22.5,6.1,26.3c5.5,3.5,17.3,2.8,35.4-2.2c13.1-3.5,19.8-5.1,20.1-4.8c0.6,0.6-0.3,2.2-2.6,4.8
	c-2.6,2.9-6.1,7.5-10.3,13.8c-4.2,6.3-6.3,9.9-6.3,10.7c0,4.1-12.1,7.5-36.3,10.1c-8.2,1.2-13.1,1.9-14.9,2.2
	c-6.4,1.2-10.9,1.5-13.6,0.9c-1.7-0.6-3-0.5-3.7,0.2c-0.7,0.7-1.5,2.9-2.4,6.4c-1.2,5.9-1.7,11.3-1.7,16.2c0,5.9,1.7,10.5,5.2,14
	c2.6,2.6,4.7,4.2,6.3,4.6c1.6,0.4,5.3,0.5,11.1,0.2c8.4-0.6,12.7-0.3,12.7,0.9c0,1.2-1.9,5-5.7,11.4c-9,16.7-43.2,83.2-43.8,96.4
	c-0.3,4.7-0.1,7.7,0.4,9c0.6,1.3,2.3,3,5.2,5c4.4,2.9,7.3,4.1,8.7,3.5c1.5-0.3,5.1-4.2,10.9-11.6c5.8-7.5,10.1-13.8,12.7-19.1
	c3.8-6.7,38.2-65.8,44.6-74c6.1-7.9,12.1-16.5,17.9-25.9c3.8-6.4,8.1-10.8,12.9-13.2c4.8-2.3,14.4-4.7,28.6-7
	C165.8,152.2,175.3,150.2,178.5,148.7 M307.9,24.9c0.9,0.3,1.6,0.6,2.2,0.9c-1.5,0.6-2.9,0.6-4.4,0l-0.4-0.4L307.9,24.9z"/>



</svg>
