<?xml version="1.0" encoding="utf-8"?>
<!-- Generator: Adobe Illustrator 19.0.0, SVG Export Plug-In . SVG Version: 6.00 Build 0)  -->
<svg version="1.1" id="Layer_1" xmlns="http://www.w3.org/2000/svg" xmlns:xlink="http://www.w3.org/1999/xlink" x="0px" y="0px"
	 width="112px" height="108px" viewBox="0 0 112 108" style="enable-background:new 0 0 112 108;" xml:space="preserve"><g>
	<path style="fill:#4285F4;" d="M104.4,53.5c0-3.4-0.3-6.7-0.9-10H57v19h26.6c-1.1,6.1-4.7,11.5-9.8,15v12.3h15.9
		C99,81.2,104.4,68.5,104.4,53.5"/>
	<path style="fill:#34A853;" d="M57,101.7c13.3,0,24.5-4.4,32.7-11.9L73.8,77.4c-4.4,3-10.1,4.7-16.8,4.7
		c-12.9,0-23.8-8.7-27.7-20.4H12.9v12.7C21.3,91.2,38.3,101.7,57,101.7"/>
	<path style="fill:#FBBC04;" d="M29.3,61.8c-2.1-6.1-2.1-12.8,0-18.9V30.2H12.9c-7,13.9-7,30.4,0,44.3L29.3,61.8z"/>
	<path style="fill:#EA4335;" d="M57,22.5c7-0.1,13.8,2.5,18.9,7.4L90,15.8C81.1,7.5,69.2,2.8,57,3C38.3,3,21.3,13.5,12.9,30.2
		l16.4,12.7C33.2,31.2,44.1,22.5,57,22.5"/>
</g></svg>
