<?xml version="1.0" encoding="utf-8"?>
<!-- Generator: Adobe Illustrator 19.0.0, SVG Export Plug-In . SVG Version: 6.00 Build 0)  -->
<svg version="1.1" id="Layer_1" xmlns="http://www.w3.org/2000/svg" xmlns:xlink="http://www.w3.org/1999/xlink" x="0px" y="0px"
	 width="77.7px" height="30.8px" viewBox="0 0 77.7 30.8" style="enable-background:new 0 0 77.7 30.8;" xml:space="preserve">
<g>
	<polygon style="fill:#231F20;" points="44.6,25.6 43.7,27.2 42,27.5 43.2,28.8 43,30.6 44.6,29.8 46.2,30.6 46,28.7 47.2,27.5 
		45.5,27.2 	"/>
	<polygon style="fill:#231F20;" points="50.9,25.6 50,27.2 48.3,27.5 49.5,28.8 49.3,30.6 50.9,29.8 52.4,30.6 52.3,28.7 53.5,27.5 
		51.7,27.2 	"/>
	<polygon style="fill:#231F20;" points="57,25.6 56.2,27.2 54.5,27.5 55.7,28.8 55.4,30.6 57,29.8 58.6,30.6 58.5,28.7 59.7,27.5 
		57.9,27.2 	"/>
	<polygon style="fill:#231F20;" points="63.2,25.6 62.4,27.2 60.7,27.5 61.9,28.8 61.6,30.6 63.2,29.8 64.8,30.6 64.7,28.7 
		65.9,27.5 64.1,27.2 	"/>
	<polygon style="fill:#231F20;" points="69.5,25.6 68.6,27.2 66.9,27.5 68.1,28.8 67.9,30.6 69.5,29.8 71.1,30.6 70.9,28.7 
		72.1,27.5 70.4,27.2 	"/>
	<path style="fill:#231F20;" d="M30.3,28.5c0.3-0.8,0.5-1.5,0.8-2.3c0.1-0.4,0.4-0.3,0.6-0.3c0.3,0,0.6-0.1,0.7,0.3
		c0.3,0.9,0.6,1.7,0.9,2.6c0.2-0.3,0.3-0.7,0.4-1c0.2-0.5,0.3-1,0.4-1.5c0.1-0.4,0.3-0.5,0.7-0.5c0.8,0,0.8,0,0.5,0.7
		c-0.4,1.2-0.7,2.3-1.1,3.5c-0.1,0.3-0.2,0.4-0.6,0.4c-0.9,0-0.9,0-1.1-0.8c-0.2-0.7-0.5-1.4-0.8-2.2c-0.2,0.5-0.3,1-0.5,1.6
		c-0.1,0.2-0.1,0.4-0.2,0.6c-0.3,0.9-0.5,1-1.4,0.8c-0.2,0-0.3-0.2-0.3-0.3c-0.4-1.3-0.8-2.7-1.2-4c-0.1-0.3,0-0.4,0.3-0.4
		c0.9,0,0.9,0,1.1,0.8c0.2,0.7,0.4,1.3,0.6,2C30.3,28.8,30.2,28.6,30.3,28.5"/>
	<path style="fill:#231F20;" d="M37.8,30.8c-0.7,0-1.3-0.2-1.9-0.5c-0.5-0.3-0.1-0.5,0-0.8c0.1-0.3,0.3-0.3,0.5-0.1
		c0.3,0.2,0.7,0.4,1.1,0.4c0.3,0,0.5,0,0.8-0.1c0.1-0.1,0.3-0.2,0.3-0.4c0-0.2-0.1-0.3-0.3-0.3c-0.4-0.1-0.8-0.2-1.3-0.3
		c-0.5-0.1-0.9-0.3-1.1-0.8c-0.3-0.7,0-1.5,0.8-1.8c0.9-0.4,1.8-0.2,2.7,0.2c0.4,0.2,0.2,0.4,0,0.6c-0.1,0.2-0.2,0.5-0.5,0.2
		c-0.4-0.3-0.9-0.4-1.4-0.3c-0.2,0.1-0.4,0.2-0.4,0.4c0,0.2,0.2,0.3,0.4,0.4c0.4,0.1,0.9,0.2,1.3,0.3c0.8,0.3,1.1,0.7,1.1,1.4
		c0,0.6-0.4,1.2-1.2,1.4C38.3,30.7,38,30.7,37.8,30.8"/>
	<path style="fill:#231F20;" d="M17.7,29c0.3-0.8,0.6-1.6,0.9-2.4c0.2-0.5,0.4-0.7,1-0.7c0.6,0.1,0.6,0,0.4,0.6
		c-0.5,1.2-1,2.5-1.5,3.7c-0.1,0.3-0.3,0.4-0.6,0.4c-0.2,0-0.2,0-0.4,0c-0.4,0-0.6-0.1-0.8-0.5c-0.5-1.2-1-2.5-1.5-3.7
		c-0.1-0.3-0.2-0.5,0.3-0.5c1,0.1,0.8-0.2,1.2,0.8c0.3,0.7,0.6,1.5,0.9,2.2L17.7,29z"/>
	<path style="fill:#231F20;" d="M20.7,28.2c0-0.6,0-1.3,0-1.9c0-0.3,0.1-0.4,0.4-0.4c1,0,0.8-0.1,0.8,0.8c0,1.1,0,2.3,0,3.4
		c0,0.3-0.1,0.5-0.4,0.4c-1,0-0.8,0.1-0.8-0.8C20.7,29.3,20.7,28.7,20.7,28.2"/>
	<path style="fill:#231F20;" d="M22.1,24.7c0,0.4-0.3,0.7-0.7,0.7c-0.4,0-0.7-0.3-0.7-0.7c0-0.4,0.4-0.7,0.7-0.7
		C21.7,23.9,22.1,24.3,22.1,24.7"/>
	<path style="fill:#231F20;" d="M30.3,28.5c0,0.1,0,0.3-0.1,0.3c-0.1,0-0.1-0.1-0.1-0.1L30.3,28.5z"/>
	<path style="fill:#231F20;" d="M8.5,28.6c-0.2-0.3-0.2-0.4,0.2-0.6c0.4-0.1,0.6-0.4,0.8-0.8c0.7-1.4-0.2-3-1.8-3
		c-0.9,0-1.8,0-2.7,0c-0.4,0-0.5,0.1-0.5,0.5c0,1.7,0,3.3,0,5c0,1.1-0.2,0.9,1,1c0.3,0,0.4-0.1,0.4-0.4c0-0.5,0-1,0-1.5
		c0-0.1,0-0.3,0.1-0.3c0.3-0.2,0.9,0,1.1,0.3c0.3,0.5,0.6,1.1,0.9,1.6c0.1,0.2,0.2,0.3,0.4,0.3c0.4,0,0.9,0,1.4,0
		C9.2,29.9,8.9,29.2,8.5,28.6 M7.5,27.1c-0.5,0-0.9,0-1.4,0c-0.2,0-0.3-0.1-0.2-0.3c0-0.2,0-0.3,0-0.5c0-1,0-1,1-1
		c0.2,0,0.5,0,0.7,0c0.5,0.1,0.7,0.4,0.7,0.9C8.2,26.7,7.9,27,7.5,27.1"/>
	<path style="fill:#231F20;" d="M25.8,25.8c-1-0.2-1.9,0-2.5,0.9c-0.7,0.9-0.7,1.9-0.2,2.8c0.6,1.1,2.1,1.5,3.5,0.9
		c0.6-0.3,0.6-0.4,0.3-0.9c-0.2-0.3-0.3-0.2-0.5-0.1c-0.9,0.5-1.8,0.3-2.2-0.5c-0.1-0.3-0.1-0.4,0.2-0.4c0.5,0,0.9,0,1.4,0
		c0.5,0,0.9,0,1.4,0c0.2,0,0.4,0,0.4-0.3C27.6,27.4,27.2,26.1,25.8,25.8 M26.1,27.8c-0.3,0-0.5,0-0.8,0c-0.3,0-0.6,0-0.9,0
		c-0.2,0-0.3-0.1-0.2-0.3c0.1-0.4,0.6-0.7,1-0.7c0.5,0,0.9,0.2,1.1,0.7C26.4,27.7,26.4,27.8,26.1,27.8"/>
	<path style="fill:#231F20;" d="M13.6,26c-0.8-0.4-2-0.3-2.7,0.3c-1,0.9-1.1,2.5-0.3,3.5c0.9,1.1,2.6,1,3.6,0.4
		c0.2-0.1,0.2-0.3,0.1-0.5c-0.2-0.4-0.4-0.5-0.8-0.3c-0.8,0.4-1.6,0.2-2-0.4c-0.2-0.4-0.2-0.5,0.3-0.5c0.4,0,0.9,0,1.3,0
		c0.5,0,0.9,0,1.4,0c0.2,0,0.3,0,0.3-0.2C15,27.5,14.4,26.4,13.6,26 M13.4,27.8c-0.3,0-0.6,0-0.9,0c-0.3,0-0.6,0-0.9,0
		c-0.2,0-0.3-0.1-0.2-0.3c0.1-0.4,0.6-0.7,1.1-0.7c0.5,0,0.9,0.3,1,0.7C13.7,27.7,13.6,27.8,13.4,27.8"/>
	<path style="fill:#231F20;" d="M40.3,6.9c-3.5,0-6.3,2.6-6.3,6.3c0,3.6,2.9,6.3,6.3,6.3c3.5,0,6.3-2.7,6.3-6.3
		C46.8,9.6,43.9,6.9,40.3,6.9 M40.3,17c-1.9,0-3.6-1.6-3.6-3.8c0-2.2,1.6-3.8,3.6-3.8c1.9,0,3.6,1.6,3.6,3.8
		C43.9,15.5,42.3,17,40.3,17"/>
	<path style="fill:#231F20;" d="M26.5,6.9c-3.5,0-6.3,2.6-6.3,6.3c0,3.6,2.9,6.3,6.3,6.3c3.5,0,6.3-2.7,6.3-6.3
		C32.8,9.6,30,6.9,26.5,6.9 M26.5,17c-1.9,0-3.6-1.6-3.6-3.8c0-2.2,1.6-3.8,3.6-3.8c1.9,0,3.6,1.6,3.6,3.8
		C30.1,15.5,28.4,17,26.5,17"/>
	<path style="fill:#231F20;" d="M9.9,8.8v2.7h6.5c-0.2,1.5-0.7,2.6-1.5,3.3c-1,0.9-2.4,2-5,2c-4,0-7.1-3.2-7.1-7
		c0-3.9,3.1-7.1,7.1-7.1c2.1,0,3.7,0.9,4.8,1.8l1.9-1.8C15,1.2,12.9,0,9.9,0C4.5,0,0,4.4,0,9.7c0,5.4,4.6,9.7,9.9,9.7
		c3,0,5.1-1,6.8-2.7c1.7-1.7,2.4-4.2,2.4-6.3c0-0.6,0-1.2-0.1-1.7H9.9V8.8z"/>
	<path style="fill:#231F20;" d="M72.4,17c-1.4,0-2.4-0.6-3.1-1.8l8.5-3.4l-0.2-0.7C77,9.6,75.4,7,72,7c-3.2,0-6,2.6-6,6.3
		c0,3.6,2.7,6.3,6.3,6.3c2.9,0,4.6-1.7,5.2-2.8l-2.1-1.5C74.7,16.2,73.7,17,72.4,17 M72.1,9.3c1.1,0,2,0.5,2.4,1.4L68.8,13
		C68.7,10.6,70.6,9.3,72.1,9.3"/>
	<rect x="61.9" y="0.6" style="fill:#231F20;" width="2.7" height="18.4"/>
	<path style="fill:#231F20;" d="M57.3,7.4v1C56.6,7.6,55.5,7,53.9,7c-3.2,0-6.1,2.7-6.1,6.3c0,3.6,2.9,6.3,6.1,6.3
		c1.5,0,2.7-0.6,3.4-1.5h0.1v0.9c0,2.3-1.2,3.7-3.4,3.7c-1.7,0-2.7-1.2-3.2-2.2l-2.4,1c0.7,1.7,2.5,3.7,5.6,3.7c3.2,0,6-1.8,6-6.5
		V7.4H57.3z M54.2,17c-1.9,0-3.5-1.6-3.5-3.8c0-2.2,1.6-3.8,3.5-3.8c1.9,0,3.4,1.6,3.4,3.8C57.6,15.4,56.1,17,54.2,17"/>
</g>

</svg>
