<?xml version="1.0" encoding="utf-8"?>
<!-- Generator: Adobe Illustrator 19.0.0, SVG Export Plug-In . SVG Version: 6.00 Build 0)  -->
<svg version="1.1" id="Layer_1" xmlns="http://www.w3.org/2000/svg" xmlns:xlink="http://www.w3.org/1999/xlink" x="0px" y="0px"
	 width="100px" height="100px" viewBox="0 0 100 100" style="enable-background:new 0 0 100 100;" xml:space="preserve"><path d="M88.9,88.4L87.2,89c-2.9,1.2-5.8,1.8-8.6,1.8c-2.9,0-5.2-0.6-6.9-1.4c2.6-1.8,4.3-4.8,4.3-8.2v-9v-2.8v-3.1l0.5-0.3
	l-0.8-1.6c-0.1-0.1-5-10.3,0.5-17.3l0.9-1.1l-3.6-12.3c-0.2-0.7,0.2-1.4,0.8-1.6c0.2-0.1,0.3-0.1,0.4-0.1c0.2,0,0.4,0,0.6,0.1
	c0.3,0.2,0.5,0.4,0.7,0.8l8.7,26.2l5.2-1.7l-8.7-26.2c-0.6-1.7-1.8-3.1-3.4-3.9c-0.6-0.3-1.2-0.5-1.8-0.6V14.2c0-5.5-4.5-10-10-10
	H28c-5.5,0-10,4.5-10,10v10.2h5.4V14.2c0-2.5,2-4.5,4.5-4.5h1.8c1.5,0,2.7,1.2,2.7,2.7c0,3.5,2.8,6.3,6.3,6.3h16.3
	c3.5,0,6.3-2.8,6.3-6.3c0-1.5,1.2-2.7,2.7-2.7h1.8c2.5,0,4.5,2,4.5,4.5v14.1c-2.1,1.7-3,4.4-2.3,7.1l2.8,9.7
	c-5.5,8.3-1.7,18.5-0.6,21.2v3.1v2.8v9c0,2.5-2,4.5-4.5,4.5H28c-2.5,0-4.5-2-4.5-4.5V69.6H18v11.7c0,5.5,4.5,10,10,10h36.3l0.6,0.5
	c0.5,0.5,5.5,4.5,13.8,4.5c3.5,0,7.1-0.8,10.7-2.2l1.6-0.7L88.9,88.4z M56.1,12.4c0,0.5-0.4,0.9-0.9,0.9H38.9
	c-0.5,0-0.9-0.4-0.9-0.9c0-1-0.2-1.9-0.5-2.7h19.1C56.3,10.6,56.1,11.5,56.1,12.4"/>
<path d="M19.2,67.1c2.9,0,5.4-2.1,5.9-5.1c0.2-1.2,0-2.4-0.5-3.5v0c1.5-1.1,2.4-2.7,2.7-4.4l0-0.1c0.3-1.8-0.2-3.6-1.2-5.1
	c-0.1-0.1-0.2-0.2-0.3-0.3c1.1-1,1.9-2.4,2.1-3.9l0-0.1c0.3-1.8-0.2-3.6-1.2-5.1c-0.5-0.7-1.2-1.3-1.9-1.8c0.4-0.7,0.7-1.5,0.8-2.3
	c0.3-1.6-0.1-3.3-1.1-4.6c-1-1.3-2.4-2.2-4-2.5l-5.5-0.9c-0.3,0-0.6-0.1-1-0.1c-1.3,0-2.6,0.4-3.6,1.2c-1.4,1-2.2,2.4-2.5,4.2
	c-0.3,1.6,0.1,3.3,1.1,4.6c0.2,0.3,0.4,0.5,0.7,0.8c-0.8,0.9-1.3,2.1-1.5,3.4l0,0.1c-0.3,1.8,0.2,3.6,1.2,5.1
	c0.1,0.1,0.2,0.2,0.3,0.3c-1.1,1-1.9,2.4-2.1,3.9l0,0.1c-0.3,1.8,0.2,3.6,1.2,5.1c0.2,0.3,0.4,0.5,0.7,0.8c-0.6,0.8-0.9,1.7-1.1,2.6
	c-0.2,1.6,0.1,3.1,1.1,4.4c0.9,1.3,2.3,2.1,3.9,2.4l5.1,0.8C18.5,67.1,18.9,67.1,19.2,67.1 M22.9,42.1c0.4,0.5,0.5,1.1,0.4,1.7
	l0,0.1c-0.1,0.6-0.4,1.1-0.9,1.5c-0.4,0.3-0.8,0.4-1.3,0.4c-0.1,0-0.2,0-0.4,0l-6.4-1c-0.6-0.1-1.1-0.4-1.5-0.9
	c-0.4-0.5-0.5-1.1-0.4-1.7l0-0.1c0.2-1.1,1.1-1.9,2.2-1.9c0.1,0,0.2,0,0.4,0l6.4,1C22.1,41.3,22.6,41.6,22.9,42.1 M13,32.1
	c0.3-0.2,0.6-0.3,1-0.3c0.1,0,0.2,0,0.3,0l5.5,0.9c0.4,0.1,0.8,0.3,1.1,0.6c0.3,0.4,0.4,0.8,0.3,1.3c-0.1,0.4-0.3,0.8-0.6,1.1
	c-0.3,0.2-0.6,0.3-1,0.3c-0.1,0-0.2,0-0.3,0l-5.5-0.9c-0.4-0.1-0.8-0.3-1.1-0.6c-0.3-0.4-0.4-0.8-0.3-1.3
	C12.4,32.8,12.6,32.4,13,32.1 M12.3,53.3c-0.4-0.5-0.5-1.1-0.4-1.8c0.2-1.1,1.1-1.9,2.2-1.9c0.1,0,0.2,0,0.4,0l6.4,1
	c0.6,0.1,1.1,0.4,1.5,0.9c0.4,0.5,0.5,1.1,0.4,1.7l0,0.1c-0.1,0.6-0.4,1.1-0.9,1.5c-0.4,0.3-0.8,0.4-1.3,0.4c-0.1,0-0.2,0-0.4,0
	l-6.4-1C13.2,54.1,12.7,53.8,12.3,53.3 M13,61.2c-0.2-0.3-0.3-0.7-0.2-1.1c0.1-0.6,0.7-1.1,1.3-1.1c0.1,0,0.1,0,0.2,0l5.1,0.8
	c0.8,0.1,1.2,0.8,1.1,1.6c-0.1,0.4-0.2,0.7-0.5,0.9c-0.2,0.2-0.5,0.3-0.8,0.3c-0.1,0-0.1,0-0.2,0l-5.1-0.8
	C13.5,61.6,13.2,61.5,13,61.2"/>
<path d="M57.7,41.4l-0.3,0.8c-0.3,0.6-0.9,1.9-2,3.2c-2,2.3-4.5,3.5-7.5,3.5c-3,0-5.6-1.2-7.7-3.5C39,44,38.3,42.8,38,42.1l-0.4-0.8
	l-3.8,1.4l0.4,0.9c0.4,0.9,1.3,2.5,2.8,4.2c2.9,3.3,6.6,5,10.9,5c4.2,0,7.9-1.7,10.7-5c1.4-1.7,2.2-3.4,2.6-4.3l0.4-0.9L57.7,41.4z"
	/>
<path d="M39.8,35.4c1.7,0,3.1-1.4,3.1-3.1c0-1.7-1.4-3.1-3.1-3.1c-1.7,0-3.1,1.4-3.1,3.1C36.6,34,38,35.4,39.8,35.4"/>
<path d="M55.5,35.4c1.7,0,3.1-1.4,3.1-3.1c0-1.7-1.4-3.1-3.1-3.1c-1.7,0-3.1,1.4-3.1,3.1C52.4,34,53.8,35.4,55.5,35.4"/></svg>
