<?xml version="1.0" encoding="utf-8"?>
<!-- Generator: Adobe Illustrator 19.0.0, SVG Export Plug-In . SVG Version: 6.00 Build 0)  -->
<svg version="1.1" id="Layer_1" xmlns="http://www.w3.org/2000/svg" xmlns:xlink="http://www.w3.org/1999/xlink" x="0px" y="0px"
	 width="80px" height="80px" viewBox="0 0 80 80" style="enable-background:new 0 0 80 80;" xml:space="preserve"><g>
	<path style="fill:#02BAB9;" d="M17.3,47.5V29.2c0.1-0.5,0.2-1,0.2-1.6c0.4-6.6,5.2-11.7,11.8-11.9c7.2-0.2,14.5-0.2,21.7,0
		c6.6,0.2,11.6,5.3,11.8,11.9c0.2,7.2,0.2,14.3,0,21.5c-0.1,5.8-3.9,10.2-9.5,11.5c-1.4,0.3-2.9,0.4-4.4,0.7H31.3
		c-0.6-0.1-1.2-0.2-1.8-0.2c-5.9-0.3-10.5-4.2-11.7-9.9C17.6,49.9,17.5,48.7,17.3,47.5 M40.2,56.9L40.2,56.9c3.4,0,6.8,0.1,10.2,0
		c4.9-0.2,8.2-3.3,8.3-8.2c0.2-6.9,0.1-13.8,0-20.7c-0.1-2.8-1.1-5.4-3.8-6.8c-1.4-0.8-3.2-1.3-4.8-1.4c-6.6-0.2-13.3-0.2-19.9,0
		c-5.3,0.1-8.5,3.3-8.6,8.6c-0.1,6.6-0.1,13.3,0,19.9c0.1,5.3,3.3,8.4,8.6,8.6C33.6,57,36.9,56.9,40.2,56.9"/>
	<path style="fill:#02BAB9;" d="M51.9,38.4c0,6.6-5.3,11.8-11.8,11.7c-6.5,0-11.7-5.2-11.7-11.7c0-6.6,5.2-11.8,11.8-11.8
		C46.8,26.6,52,31.8,51.9,38.4 M40.2,30.7c-4.3,0-7.6,3.3-7.6,7.6c0,4.2,3.3,7.6,7.5,7.6c4.3,0,7.7-3.3,7.7-7.5
		C47.8,34.1,44.5,30.7,40.2,30.7"/>
	<path style="fill:#02BAB9;" d="M55.2,26.1c0,1.5-1.3,2.8-2.8,2.7c-1.5,0-2.8-1.3-2.7-2.8c0-1.5,1.3-2.7,2.8-2.7
		C54,23.4,55.2,24.6,55.2,26.1"/>
	<circle style="fill:none;stroke:#02BAB9;stroke-miterlimit:10;" cx="40.1" cy="40" r="38.5"/>
</g></svg>
