<?xml version="1.0" encoding="utf-8"?>
<!-- Generator: Adobe Illustrator 19.0.0, SVG Export Plug-In . SVG Version: 6.00 Build 0)  -->
<svg version="1.1" id="Layer_1" xmlns="http://www.w3.org/2000/svg" xmlns:xlink="http://www.w3.org/1999/xlink" x="0px" y="0px"
	 width="80px" height="80px" viewBox="0 0 80 80" style="enable-background:new 0 0 80 80;" xml:space="preserve"><path style="fill:#02BAB9;" d="M42.3,32.7c0.6-0.6,1.1-1.3,1.6-1.8c1.7-1.6,3.7-2.1,5.9-2.1c1.9,0,3.7,0.4,5.3,1.5
	c1.7,1.1,2.8,2.8,3.5,4.7c0.6,1.7,0.8,3.4,0.8,5.1c0,4.6,0,9.1,0,13.7c0,0.4-0.1,0.5-0.5,0.5c-2.5,0-4.9,0-7.4,0
	c-0.4,0-0.5-0.1-0.5-0.5c0-4.2,0-8.4,0-12.6c0-1.2-0.1-2.5-0.6-3.6c-0.7-1.6-2-2.3-3.7-2.2c-2.4,0.1-4.4,1.9-4.4,4.4
	c-0.1,3.5,0,7,0,10.4c0,1.2,0,2.5,0,3.7c0,0.3-0.1,0.4-0.4,0.4c-2.6,0-5.1,0-7.7,0c-0.1,0-0.1,0-0.2,0V29.3c0.2,0,0.3,0,0.4,0
	c2.5,0,4.9,0,7.4,0c0.4,0,0.5,0.1,0.5,0.5c0,0.8,0,1.6,0,2.4C42.3,32.3,42.3,32.5,42.3,32.7"/>
<path style="fill:#02BAB9;" d="M21,29.3h8.3c0,0.2,0,0.3,0,0.5c0,8,0,16,0,23.9c0,0.4-0.1,0.5-0.5,0.5c-2.5,0-4.9,0-7.4,0
	c-0.4,0-0.5-0.1-0.5-0.5c0-8,0-16,0-24V29.3z"/>
<path style="fill:#02BAB9;" d="M25.3,17.3c1.6,0,3.1,0.6,4.1,2.2c1.3,2.3,0.2,5.1-2.2,6c-1.5,0.5-2.9,0.5-4.3-0.2
	c-1.7-0.8-2.7-3.1-2.1-4.9C21.3,18.5,22.8,17.4,25.3,17.3"/>
<circle style="fill:none;stroke:#02BAB9;stroke-miterlimit:10;" cx="40" cy="40" r="39"/></svg>
