<?xml version="1.0" encoding="utf-8"?>
<!-- Generator: Adobe Illustrator 19.0.0, SVG Export Plug-In . SVG Version: 6.00 Build 0)  -->
<svg version="1.1" id="Layer_1" xmlns="http://www.w3.org/2000/svg" xmlns:xlink="http://www.w3.org/1999/xlink" x="0px" y="0px"
	 width="108.7px" height="44.2px" viewBox="0 0 108.7 44.2" style="enable-background:new 0 0 108.7 44.2;" xml:space="preserve">
<g>
	<rect x="0" width="7.3" height="33.7"/>
	<path d="M24.7,34.1c-2.5,0-4.8-0.5-6.7-1.6c-2-1.1-3.5-2.6-4.6-4.5c-1.1-1.9-1.7-4-1.7-6.5c0-2.4,0.6-4.6,1.7-6.5
		c1.1-1.9,2.7-3.4,4.6-4.5C20,9.6,22.2,9,24.7,9c2.5,0,4.8,0.5,6.7,1.6c2,1.1,3.5,2.6,4.6,4.5c1.1,1.9,1.7,4,1.7,6.5
		c0,2.4-0.6,4.6-1.7,6.5c-1.1,1.9-2.7,3.4-4.6,4.5C29.5,33.6,27.2,34.1,24.7,34.1 M24.7,27.9c1.1,0,2.1-0.3,2.9-0.8
		c0.8-0.5,1.5-1.3,2-2.2c0.5-0.9,0.7-2,0.7-3.2c0-1.2-0.2-2.3-0.7-3.3c-0.5-1-1.2-1.7-2-2.3c-0.9-0.5-1.8-0.8-2.9-0.8
		c-1.1,0-2.1,0.3-2.9,0.8c-0.9,0.5-1.5,1.3-2,2.3c-0.5,1-0.7,2-0.7,3.3c0,1.2,0.2,2.3,0.7,3.2c0.5,0.9,1.2,1.7,2,2.2
		C22.6,27.6,23.6,27.9,24.7,27.9"/>
	<path d="M53.6,44.2c-2,0-3.9-0.3-5.9-0.9c-2-0.6-3.5-1.3-4.8-2.2l2.5-5.1c0.6,0.4,1.3,0.8,2.1,1.1c0.8,0.3,1.6,0.6,2.4,0.8
		c0.8,0.2,1.7,0.3,2.6,0.3c1.5,0,2.8-0.2,3.8-0.7c1-0.5,1.7-1.1,2.2-2.1c0.5-0.9,0.7-2.1,0.7-3.5v-4.1l1.4,0.2
		c-0.2,1-0.7,1.9-1.6,2.7c-0.8,0.8-1.9,1.5-3.1,2c-1.2,0.5-2.5,0.8-3.9,0.8c-2.2,0-4.1-0.5-5.8-1.5c-1.7-1-3.1-2.4-4.1-4.2
		c-1-1.8-1.5-3.9-1.5-6.3c0-2.4,0.5-4.6,1.5-6.4c1-1.9,2.3-3.3,4-4.4C48,9.6,49.9,9,52,9c0.9,0,1.8,0.1,2.6,0.3
		c0.8,0.2,1.6,0.5,2.3,0.8c0.7,0.3,1.3,0.8,1.9,1.2c0.6,0.5,1,1,1.4,1.5c0.3,0.5,0.6,1.1,0.7,1.7L59.4,15l0.3-5.5h6.9v22.2
		c0,2-0.3,3.7-0.9,5.3c-0.6,1.5-1.5,2.8-2.6,3.9C62,42,60.6,42.8,59,43.3C57.4,43.9,55.6,44.2,53.6,44.2 M53.8,27.9
		c1.2,0,2.2-0.3,3.1-0.8c0.9-0.5,1.5-1.3,2-2.2c0.5-0.9,0.7-2,0.7-3.3c0-1.3-0.2-2.4-0.7-3.3c-0.5-1-1.1-1.7-2-2.2
		c-0.9-0.5-1.9-0.8-3.1-0.8c-1.2,0-2.2,0.3-3,0.8c-0.8,0.5-1.5,1.3-2,2.2c-0.5,1-0.7,2.1-0.7,3.3c0,1.3,0.2,2.4,0.7,3.3
		c0.5,0.9,1.1,1.7,2,2.2C51.6,27.6,52.6,27.9,53.8,27.9"/>
	<path d="M84.3,34.1c-2.5,0-4.8-0.5-6.7-1.6c-2-1.1-3.5-2.6-4.6-4.5c-1.1-1.9-1.7-4-1.7-6.5c0-2.4,0.6-4.6,1.7-6.5
		c1.1-1.9,2.7-3.4,4.6-4.5c2-1.1,4.2-1.6,6.7-1.6c2.5,0,4.8,0.5,6.7,1.6c2,1.1,3.5,2.6,4.6,4.5c1.1,1.9,1.7,4,1.7,6.5
		c0,2.4-0.6,4.6-1.7,6.5c-1.1,1.9-2.7,3.4-4.6,4.5C89.1,33.6,86.9,34.1,84.3,34.1 M84.3,27.9c1.1,0,2.1-0.3,2.9-0.8
		c0.8-0.5,1.5-1.3,2-2.2c0.5-0.9,0.7-2,0.7-3.2c0-1.2-0.2-2.3-0.7-3.3c-0.5-1-1.2-1.7-2-2.3c-0.9-0.5-1.8-0.8-2.9-0.8
		c-1.1,0-2.1,0.3-2.9,0.8c-0.9,0.5-1.5,1.3-2,2.3c-0.5,1-0.7,2-0.7,3.3c0,1.2,0.2,2.3,0.7,3.2c0.5,0.9,1.2,1.7,2,2.2
		C82.3,27.6,83.2,27.9,84.3,27.9"/>
	<path d="M104.7,34.2c-1.2,0-2.2-0.3-2.9-1c-0.7-0.7-1-1.7-1-3c0-1.2,0.4-2.2,1.1-3c0.7-0.8,1.7-1.1,2.8-1.1c1.2,0,2.2,0.4,2.9,1.1
		c0.7,0.7,1,1.7,1,3c0,1.2-0.4,2.2-1.1,2.9C106.9,33.8,105.9,34.2,104.7,34.2"/>
</g>
</svg>
