<?xml version="1.0" encoding="utf-8"?>
<!-- Generator: Adobe Illustrator 19.0.0, SVG Export Plug-In . SVG Version: 6.00 Build 0)  -->
<svg version="1.1" id="Layer_1" xmlns="http://www.w3.org/2000/svg" xmlns:xlink="http://www.w3.org/1999/xlink" x="0px" y="0px"
	 width="38.4px" height="26.3px" viewBox="0 0 38.4 26.3" style="enable-background:new 0 0 38.4 26.3;" xml:space="preserve"><g>
	<defs>
		<path id="SVGID_4_" d="M27.6,0c-1.3,0-2.5,0.1-3.5,0.4c-1,0.2-2,0.6-2.8,1c-0.5,0.3-1,0.6-1.6,1.1L19.2,3l-0.5-0.5
			c-0.6-0.5-1.2-0.9-1.9-1.3c-1.6-0.8-3.6-1.2-6-1.2C9.5,0,8.3,0.2,7.2,0.4c-1,0.2-2,0.6-2.8,1C3.7,1.8,3,2.4,2.4,3
			C1.8,3.6,1.3,4.2,1,5C0.3,6.3,0,7.9,0,9.8l0,14l0,0.3c0.1,1.2,1.1,2.2,2.3,2.2c1.2,0,2.2-1,2.3-2.2l0-0.1l0-12.8
			c0-1.6,0.2-2.9,0.7-3.8c0.5-1,1.2-1.8,2.2-2.3c0.9-0.5,2-0.7,3.3-0.7c1.2,0,2.3,0.2,3.1,0.6c0.9,0.5,1.7,1.1,2.2,2.1
			c0.3,0.5,0.5,1.2,0.6,1.9c0.1,0.3,0.1,1.6,0.1,1.7l0,13.1l0,0.4c0.1,1.2,1.1,2.2,2.3,2.2c1.2,0,2.3-1,2.3-2.2l0-0.3l0-13.2
			C21.7,9,21.8,8,22.2,7.3c0.5-1,1.2-1.8,2.2-2.3c0.9-0.5,2-0.7,3.3-0.7c1.2,0,2.3,0.2,3.1,0.6c0.9,0.5,1.7,1.1,2.2,2.1
			c0.3,0.5,0.5,1.2,0.6,1.9c0.1,0.7,0.2,1.5,0.2,2.4l0,12.6l0,0.2c0.1,1.2,1.1,2.2,2.3,2.2c1.2,0,2.3-1,2.3-2.2l0-0.2l0-14
			c0-1.1-0.1-2.1-0.3-3c-0.2-0.9-0.5-1.7-0.9-2.4c-0.8-1.3-2-2.4-3.5-3.2C32.1,0.4,30.1,0,27.6,0C27.6,0,27.6,0,27.6,0"/>
	</defs>
	<clipPath id="SVGID_7_">
		<use xlink:href="#SVGID_4_"  style="overflow:visible;"/>
	</clipPath>
	
		<linearGradient id="SVGID_8_" gradientUnits="userSpaceOnUse" x1="-1605.8433" y1="2217.0586" x2="-1602.2294" y2="2217.0586" gradientTransform="matrix(0 -12.3838 -12.3838 0 27474.8379 -19842.7559)">
		<stop  offset="0" style="stop-color:#29CECE"/>
		<stop  offset="1.281420e-003" style="stop-color:#29CECE"/>
		<stop  offset="0.482" style="stop-color:#29CFCC"/>
		<stop  offset="0.6563" style="stop-color:#27D3C5"/>
		<stop  offset="0.7807" style="stop-color:#24DBB9"/>
		<stop  offset="0.8813" style="stop-color:#20E6A9"/>
		<stop  offset="0.9665" style="stop-color:#1BF393"/>
		<stop  offset="1" style="stop-color:#18FA88"/>
	</linearGradient>
	<rect x="0" y="0" style="clip-path:url(#SVGID_7_);fill:url(#SVGID_8_);" width="38.5" height="26.3"/>
</g></svg>
