<?xml version="1.0" encoding="utf-8"?>
<!-- Generator: Adobe Illustrator 19.0.0, SVG Export Plug-In . SVG Version: 6.00 Build 0)  -->
<svg version="1.1" id="Layer_1" xmlns="http://www.w3.org/2000/svg" xmlns:xlink="http://www.w3.org/1999/xlink" x="0px" y="0px"
	 width="100px" height="100px" viewBox="0 0 100 100" style="enable-background:new 0 0 100 100;" xml:space="preserve"><g>
	<path d="M62.7,57.7c0-5.8-4.8-10.6-10.6-10.6h-4.3c-2.7,0-4.9-2.2-4.9-4.9c0-2.7,2.2-4.9,4.9-4.9h12c1.6,0,2.9-1.3,2.9-2.9
		c0-1.6-1.3-2.9-2.9-2.9h-5.6h-1.4v-1.4V26c0-1.6-1.3-2.9-2.9-2.9c-1.6,0-2.9,1.3-2.9,2.9v4.4v1.1L46,31.8
		c-5.1,0.9-8.7,5.3-8.7,10.5c0,5.8,4.8,10.6,10.6,10.6h4.3c2.7,0,4.9,2.2,4.9,4.9c0,2.7-2.2,4.9-4.9,4.9h-12c-1.6,0-2.9,1.3-2.9,2.9
		c0,1.6,1.3,2.9,2.9,2.9h5.6h1.4v1.4V74c0,1.6,1.3,2.9,2.9,2.9c1.6,0,2.9-1.3,2.9-2.9v-4.4v-1.1l1.1-0.2
		C59.1,67.3,62.7,62.9,62.7,57.7"/>
	<path d="M95.5,50C95.5,24.9,75.1,4.5,50,4.5h0h0c-18.7,0-34.7,11.3-41.7,27.4c-0.1,0.1-0.1,0.3-0.2,0.4c-0.1,0.2-0.1,0.4-0.2,0.6
		C5.7,38.2,4.5,43.9,4.5,50v0v0c0,25.1,20.4,45.5,45.5,45.5l0,0c0,0,0,0,0,0c6.3,0,12.2-1.3,17.7-3.6c0,0,0,0,0,0
		c0.3-0.1,0.5-0.2,0.8-0.3C84.4,84.5,95.5,68.5,95.5,50L95.5,50C95.5,50,95.5,50,95.5,50 M10.2,50C10.2,28,28,10.2,50,10.2
		c8.6,0,16.5,2.7,23,7.3L23.5,79.7C15.3,72.4,10.2,61.8,10.2,50 M77.7,21.4c7.5,7.2,12.2,17.4,12.2,28.6C89.8,72,72,89.8,50,89.8
		c-8,0-15.4-2.4-21.7-6.4L77.7,21.4z"/>
</g></svg>
