<?xml version="1.0" encoding="utf-8"?>
<!-- Generator: Adobe Illustrator 19.0.0, SVG Export Plug-In . SVG Version: 6.00 Build 0)  -->
<svg version="1.1" id="Layer_1" xmlns="http://www.w3.org/2000/svg" xmlns:xlink="http://www.w3.org/1999/xlink" x="0px" y="0px"
	 width="68.3px" height="74.9px" viewBox="0 0 68.3 74.9" style="enable-background:new 0 0 68.3 74.9;" xml:space="preserve"><g>
	<path style="fill:#545454;" d="M64.6,68.7l-1.3,0.5c-2.3,0.9-4.5,1.4-6.7,1.4c-2.2,0-4.1-0.5-5.4-1.1c2-1.4,3.4-3.7,3.4-6.4v-7V54
		v-2.4l0.4-0.2l-0.6-1.2c0-0.1-3.9-8,0.4-13.5l0.7-0.9l-2.8-9.6c-0.2-0.5,0.1-1.1,0.6-1.2c0.1,0,0.2-0.1,0.3-0.1
		c0.1,0,0.3,0,0.4,0.1c0.2,0.1,0.4,0.3,0.5,0.6l6.8,20.4l4-1.3l-6.8-20.4c-0.4-1.3-1.4-2.4-2.7-3c-0.4-0.2-0.9-0.4-1.4-0.4V11
		c0-4.3-3.5-7.8-7.8-7.8H17.2C13,3.2,9.5,6.7,9.5,11v7.9h4.2V11c0-1.9,1.6-3.5,3.5-3.5h1.4c1.2,0,2.1,1,2.1,2.1
		c0,2.7,2.2,4.9,4.9,4.9h12.7c2.7,0,4.9-2.2,4.9-4.9c0-1.2,0.9-2.1,2.1-2.1h1.4c1.9,0,3.5,1.6,3.5,3.5v11c-1.6,1.3-2.4,3.4-1.8,5.5
		l2.2,7.6c-4.3,6.5-1.4,14.4-0.4,16.5V54v2.2v7c0,1.9-1.6,3.5-3.5,3.5H17.2c-1.9,0-3.5-1.6-3.5-3.5v-9.1H9.5v9.1
		c0,4.3,3.5,7.8,7.8,7.8h28.2l0.5,0.4c0.4,0.4,4.3,3.5,10.7,3.5c2.7,0,5.5-0.6,8.3-1.7l1.3-0.5L64.6,68.7z M39.1,9.6
		c0,0.4-0.3,0.7-0.7,0.7H25.7c-0.4,0-0.7-0.3-0.7-0.7c0-0.7-0.1-1.5-0.4-2.1h14.9C39.3,8.1,39.1,8.8,39.1,9.6"/>
	<path style="fill:#545454;" d="M10.3,52.2c2.3,0,4.2-1.7,4.6-4c0.1-0.9,0-1.9-0.4-2.7v0c1.1-0.8,1.9-2.1,2.1-3.5l0-0.1
		c0.2-1.4-0.1-2.8-1-3.9c-0.1-0.1-0.1-0.2-0.2-0.3c0.9-0.8,1.4-1.9,1.6-3.1l0-0.1c0.2-1.4-0.1-2.8-1-3.9c-0.4-0.6-0.9-1-1.5-1.4
		c0.3-0.5,0.6-1.2,0.7-1.8c0.2-1.3-0.1-2.5-0.9-3.6c-0.8-1-1.9-1.7-3.2-1.9L7,21.2c-0.3,0-0.5-0.1-0.8-0.1c-1,0-2,0.3-2.8,0.9
		c-1.1,0.8-1.7,1.9-1.9,3.2c-0.2,1.3,0.1,2.5,0.9,3.6c0.2,0.2,0.3,0.4,0.5,0.6c-0.6,0.7-1,1.6-1.2,2.6l0,0.1c-0.2,1.4,0.1,2.8,1,3.9
		c0.1,0.1,0.1,0.2,0.2,0.3c-0.9,0.8-1.5,1.9-1.6,3.1l0,0.1c-0.2,1.4,0.1,2.8,1,3.9c0.2,0.2,0.3,0.4,0.5,0.6
		c-0.4,0.6-0.7,1.3-0.8,2.1c-0.2,1.2,0.1,2.4,0.8,3.4c0.7,1,1.8,1.6,3,1.8l4,0.6C9.9,52.1,10.1,52.2,10.3,52.2 M13.3,32.7
		c0.3,0.4,0.4,0.8,0.3,1.3l0,0.1c-0.1,0.5-0.3,0.9-0.7,1.1c-0.3,0.2-0.7,0.3-1,0.3c-0.1,0-0.2,0-0.3,0l-5-0.8
		c-0.5-0.1-0.9-0.3-1.1-0.7c-0.3-0.4-0.4-0.8-0.3-1.3l0-0.1c0.1-0.8,0.9-1.5,1.7-1.5c0.1,0,0.2,0,0.3,0l5,0.8
		C12.6,32,13,32.3,13.3,32.7 M5.5,24.9c0.2-0.2,0.5-0.2,0.7-0.2c0.1,0,0.1,0,0.2,0l4.3,0.7c0.3,0.1,0.6,0.2,0.8,0.5
		c0.2,0.3,0.3,0.6,0.2,1c-0.1,0.3-0.2,0.6-0.5,0.8c-0.2,0.2-0.5,0.2-0.7,0.2c-0.1,0-0.1,0-0.2,0l-4.3-0.7c-0.3-0.1-0.6-0.2-0.8-0.5
		C5,26.5,5,26.2,5,25.7C5.1,25.4,5.3,25.1,5.5,24.9 M5,41.4c-0.3-0.4-0.4-0.8-0.3-1.4c0.1-0.8,0.9-1.5,1.7-1.5c0.1,0,0.2,0,0.3,0
		l5,0.8c0.5,0.1,0.9,0.3,1.1,0.7c0.3,0.4,0.4,0.8,0.3,1.3l0,0.1c-0.1,0.5-0.3,0.9-0.7,1.1c-0.3,0.2-0.7,0.3-1,0.3
		c-0.1,0-0.2,0-0.3,0l-5-0.8C5.7,42.1,5.3,41.8,5,41.4 M5.5,47.5c-0.2-0.2-0.2-0.5-0.2-0.9c0.1-0.5,0.5-0.9,1-0.9c0.1,0,0.1,0,0.2,0
		l4,0.6c0.6,0.1,1,0.6,0.9,1.3c0,0.3-0.2,0.5-0.4,0.7c-0.2,0.1-0.4,0.2-0.6,0.2c-0.1,0-0.1,0-0.2,0l-4-0.6
		C5.9,47.9,5.7,47.8,5.5,47.5"/>
	<path style="fill:#00D0D0;" d="M42.3,26.9L28.9,42.7l-5.8-5.5l-2.4,3.1l7.1,6.7c0.3,0.3,0.8,0.5,1.2,0.5c0.5,0,1-0.2,1.4-0.7
		l14.6-17.2L42.3,26.9z"/>
</g></svg>
