<?xml version="1.0" encoding="utf-8"?>
<!-- Generator: Adobe Illustrator 19.0.0, SVG Export Plug-In . SVG Version: 6.00 Build 0)  -->
<svg version="1.1" id="Layer_1" xmlns="http://www.w3.org/2000/svg" xmlns:xlink="http://www.w3.org/1999/xlink" x="0px" y="0px"
	 width="126.8px" height="25.4px" viewBox="0 0 126.8 25.4" style="enable-background:new 0 0 126.8 25.4;" xml:space="preserve">
   <g>
	<rect x="81" y="20.5" style="fill:#231F20;" width="1" height="1"/>
	<path style="fill:#231F20;" d="M84.9,21.6c-1.3,0-2.3-1-2.3-2.3v0c0-1.3,1-2.3,2.3-2.3c0.8,0,1.4,0.3,1.8,0.7L86,18.3
		c-0.3-0.3-0.7-0.5-1.1-0.5c-0.8,0-1.3,0.6-1.3,1.4v0c0,0.8,0.5,1.4,1.3,1.4c0.5,0,0.8-0.2,1.2-0.5l0.6,0.6
		C86.2,21.2,85.7,21.6,84.9,21.6"/>
	<path style="fill:#231F20;" d="M89.5,21.6c-1.4,0-2.4-1-2.4-2.3v0c0-1.3,1-2.3,2.4-2.3c1.4,0,2.4,1,2.4,2.3v0
		C91.9,20.5,90.9,21.6,89.5,21.6 M90.9,19.2c0-0.8-0.6-1.4-1.4-1.4c-0.8,0-1.3,0.6-1.3,1.4v0c0,0.8,0.6,1.4,1.4,1.4
		C90.3,20.6,90.9,20,90.9,19.2L90.9,19.2z"/>
	<polygon style="fill:#231F20;" points="96.3,21.5 96.3,18.6 95,20.5 95,20.5 93.8,18.6 93.8,21.5 92.8,21.5 92.8,17 93.9,17 
		95,18.9 96.2,17 97.3,17 97.3,21.5 	"/>
	<rect x="98.2" y="20.5" style="fill:#231F20;" width="1" height="1"/>
	<path style="fill:#231F20;" d="M103.5,21.5l-0.4-1h-1.9l-0.4,1h-1l1.9-4.5h0.9l1.9,4.5H103.5z M102.2,18.2l-0.6,1.5h1.2L102.2,18.2
		z"/>
	<path style="fill:#231F20;" d="M106.9,21.5c-1.2,0-1.9-0.7-1.9-2V17h1v2.5c0,0.7,0.4,1.1,1,1.1c0.6,0,1-0.4,1-1.1V17h1v2.5
		C108.9,20.9,108.1,21.5,106.9,21.5"/>
	<path style="fill:#231F20;" d="M67.3,10.3l-5.6-1.2c0,0-0.1,1.5,0.2,3.3c0.3,2,0.7,3,0.7,3s0.9,0.5,2.8,1.2c1.6,0.6,3,0.9,3,0.9
		L67.3,10.3z"/>
	<path style="fill:#231F20;" d="M73.8,10.6C73.5,8.4,73,7.4,73,7.4l-4.9,2.8l1.1,7.2c0,0,1.3-0.6,2.8-1.8c1.7-1.3,2-1.7,2-1.7
		S74.1,12.7,73.8,10.6"/>
	<path style="fill:#231F20;" d="M72.4,6.8c0,0-0.8-0.4-2.6-0.7C68.1,5.7,67,5.7,67,5.7s-1,0.2-2.6,1.1c-1.5,0.9-2.2,1.5-2.2,1.5
		l5.4,1.1L72.4,6.8z"/>
	<path style="fill:#231F20;" d="M78.2,6.4c-1.4-2.8-3.8-4.8-6.6-5.8C70.4,0.2,69.1,0,67.8,0h0h0c-1.7,0-3.4,0.4-5,1.2
		C60,2.6,58,5,57,7.8c-0.9,2.8-0.8,5.9,0.6,8.8l0,0.1c1.4,2.8,3.8,4.8,6.6,5.7c1.2,0.4,2.4,0.6,3.7,0.6c1.5,0,3-0.3,4.4-0.9l6.4,3.4
		l-1.8-7c1.2-1.6,2-3.5,2.3-5.5C79.5,10.8,79.2,8.5,78.2,6.4 M77.2,12.7c-0.2,1.6-0.9,3.2-1.9,4.5L74.7,18l0.2,1l0.6,2.5l-2.3-1.2
		l-0.9-0.5l-0.9,0.4c-1.2,0.5-2.4,0.7-3.6,0.7c-1,0-2.1-0.2-3-0.5c-2.4-0.8-4.3-2.5-5.4-4.7l0-0.1c-1.1-2.2-1.3-4.8-0.5-7.2
		c0.8-2.4,2.5-4.3,4.8-5.4c1.3-0.6,2.7-1,4.1-1c1,0,2.1,0.2,3,0.5c2.4,0.8,4.3,2.5,5.4,4.8C77.1,9,77.4,10.8,77.2,12.7"/>
	<path style="fill:#231F20;" d="M3,12H1.7v2.3H0V6.6h3.1c1.8,0,2.9,1.1,2.9,2.7v0C6.1,11.1,4.7,12,3,12 M4.4,9.3
		c0-0.8-0.5-1.2-1.4-1.2H1.7v2.3H3C3.9,10.5,4.4,10,4.4,9.3L4.4,9.3z"/>
	<path style="fill:#231F20;" d="M11.9,14.3l-1.6-2.5H8.9v2.5H7.2V6.6h3.5c1.8,0,2.9,1,2.9,2.5v0c0,1.2-0.7,2-1.6,2.4l1.9,2.7H11.9z
		 M11.9,9.2c0-0.7-0.5-1.1-1.3-1.1H8.9v2.2h1.7C11.5,10.3,11.9,9.9,11.9,9.2L11.9,9.2z"/>
	<path style="fill:#231F20;" d="M18.7,14.4c-2.4,0-4.1-1.8-4.1-3.9v0c0-2.2,1.7-4,4.1-4c2.4,0,4.1,1.8,4.1,3.9v0
		C22.8,12.6,21.1,14.4,18.7,14.4 M21.1,10.4c0-1.3-1-2.4-2.3-2.4c-1.4,0-2.3,1.1-2.3,2.4v0c0,1.3,1,2.4,2.3,2.4
		C20.1,12.8,21.1,11.8,21.1,10.4L21.1,10.4z"/>
	<path style="fill:#231F20;" d="M27.1,14.3h-3V6.6h3c2.4,0,4.1,1.7,4.1,3.8v0C31.2,12.6,29.5,14.3,27.1,14.3 M29.4,10.4
		c0-1.4-0.9-2.3-2.3-2.3h-1.3v4.6h1.3C28.5,12.8,29.4,11.8,29.4,10.4L29.4,10.4z"/>
	<path style="fill:#231F20;" d="M35.7,14.4c-2.1,0-3.3-1.2-3.3-3.4V6.6h1.7v4.3c0,1.3,0.6,1.9,1.7,1.9c1,0,1.7-0.6,1.7-1.8V6.6h1.7
		v4.3C39.1,13.3,37.8,14.4,35.7,14.4"/>
	<path style="fill:#231F20;" d="M44.2,14.4c-2.3,0-3.9-1.7-3.9-3.9v0c0-2.2,1.6-4,4-4c1.4,0,2.3,0.5,3,1.2l-1.1,1.2
		c-0.6-0.5-1.2-0.9-2-0.9c-1.3,0-2.2,1.1-2.2,2.4v0c0,1.3,0.9,2.4,2.2,2.4c0.9,0,1.4-0.4,2-0.9l1.1,1.1
		C46.6,13.9,45.7,14.4,44.2,14.4"/>
	<polygon style="fill:#231F20;" points="52.2,8.2 52.2,14.3 50.5,14.3 50.5,8.2 48.2,8.2 48.2,6.6 54.6,6.6 54.6,8.2 	"/>
	<path style="fill:#231F20;" d="M87.5,14.4l-1.6-2.5h-1.3v2.5h-1.7V6.7h3.5c1.8,0,2.9,1,2.9,2.5v0c0,1.2-0.7,2-1.6,2.4l1.9,2.7H87.5
		z M87.6,9.3c0-0.7-0.5-1.1-1.3-1.1h-1.7v2.2l1.7,0C87.1,10.4,87.6,10,87.6,9.3L87.6,9.3z"/>
	<polygon style="fill:#231F20;" points="101.3,14.4 99.8,14.4 96.7,6.7 98.6,6.7 100.6,12.1 102.6,6.7 104.4,6.7 	"/>
	<polygon style="fill:#231F20;" points="92.5,11.2 96.1,11.2 96.1,9.7 92.5,9.7 92.5,8.2 95.8,8.2 95.3,6.7 90.8,6.7 90.8,14.4 
		96.6,14.4 96.6,12.8 92.5,12.8 	"/>
	<polygon style="fill:#231F20;" points="110.8,11.2 114.4,11.2 114.4,9.7 110.8,9.7 110.8,8.2 114.1,8.2 113.6,6.7 109.1,6.7 
		109.1,14.4 115,14.4 115,12.8 110.8,12.8 	"/>
	<rect x="105.6" y="6.7" style="fill:#231F20;" width="1.7" height="7.7"/>
	<polygon style="fill:#231F20;" points="124.1,14.4 122.7,14.4 120.9,9.4 119.2,14.4 117.7,14.4 115.1,6.7 116.9,6.7 118.5,11.9 
		120.2,6.7 121.7,6.7 123.4,11.9 125,6.7 126.8,6.7 	"/>
</g>
   </svg>
