<?xml version="1.0" encoding="utf-8"?>
<!-- Generator: Adobe Illustrator 19.0.0, SVG Export Plug-In . SVG Version: 6.00 Build 0)  -->
<svg version="1.1" id="Layer_1" xmlns="http://www.w3.org/2000/svg" xmlns:xlink="http://www.w3.org/1999/xlink" x="0px" y="0px"
	 width="100px" height="100px" viewBox="0 0 100 100" style="enable-background:new 0 0 100 100;" xml:space="preserve"><path d="M54.2,89.3c-0.4-1.1-1.4-1.9-2.6-1.9c-0.3,0-0.5,0-0.8,0.1c-2.8,0.9-5.7,1.3-8.5,1.3c-4.4,0-8.8-1.1-12.6-3.1
	c-11.5-6.2-17.6-18.4-16-31.8c1-8.4,3.2-13.9,6.8-17l0.4-0.3l0.1,0.5c1.7,5.7,4.2,9.4,8.9,12.9c0.5,0.4,1,0.5,1.6,0.5
	c0.4,0,0.9-0.1,1.3-0.3c0.9-0.5,1.5-1.5,1.4-2.5c-0.5-10.7,3.5-27.5,16.4-39.7L51,7.5l0.1,0.6c1.5,9.7,6.1,17.4,10.6,24.9l0.1,0.1
	c3.6,6.1,7,11.8,8.6,18.2c0.3,1.2,1.4,2,2.6,2c0.2,0,0.4,0,0.7-0.1c1.4-0.4,2.3-1.8,2-3.3c-1.8-7.3-5.6-13.6-9.3-19.8
	c-4.4-7.4-8.6-14.4-9.9-22.9c-0.3-2.2-1.8-4-3.8-4.7c-0.6-0.2-1.2-0.3-1.8-0.3c-1.4,0-2.7,0.5-3.7,1.5C32.8,17.2,29.7,34,29,40.6
	l-0.1,0.9l-0.5-0.7c-0.9-1.5-1.7-3.2-2.3-5.3c-0.6-1.9-2.1-3.4-3.9-4c-0.5-0.1-1-0.2-1.5-0.2c-1.3,0-2.5,0.5-3.5,1.3
	C10.7,38,9,46.9,8.2,53.2c-1.9,15.7,5.4,30,18.9,37.3c4.6,2.5,9.9,3.8,15.2,3.8c3.4,0,6.8-0.5,10.1-1.5
	C53.8,92.2,54.6,90.7,54.2,89.3"/>
<path d="M63.9,74.1c4.3,0,7.7-3.5,7.7-7.7c0-4.3-3.5-7.7-7.7-7.7c-4.3,0-7.7,3.5-7.7,7.7C56.2,70.6,59.7,74.1,63.9,74.1 M63.9,64.1
	c1.3,0,2.3,1,2.3,2.3c0,1.3-1,2.3-2.3,2.3c-1.3,0-2.3-1-2.3-2.3C61.6,65.1,62.7,64.1,63.9,64.1"/>
<path d="M88.1,82.8c-4.3,0-7.7,3.5-7.7,7.7c0,4.3,3.5,7.7,7.7,7.7c4.3,0,7.7-3.5,7.7-7.7C95.8,86.2,92.3,82.8,88.1,82.8 M88.1,92.8
	c-1.3,0-2.3-1-2.3-2.3c0-1.3,1-2.3,2.3-2.3c1.3,0,2.3,1,2.3,2.3C90.4,91.8,89.3,92.8,88.1,92.8"/>
<rect x="54.8" y="75.8" transform="matrix(0.608 -0.794 0.794 0.608 -32.5429 91.133)" width="42.4" height="5.4"/></svg>
