<?xml version="1.0" encoding="utf-8"?>
<!-- Generator: Adobe Illustrator 19.0.0, SVG Export Plug-In . SVG Version: 6.00 Build 0)  -->
<svg version="1.1" id="Layer_1" xmlns="http://www.w3.org/2000/svg" xmlns:xlink="http://www.w3.org/1999/xlink" x="0px" y="0px"
	 width="100px" height="100px" viewBox="0 0 100 100" style="enable-background:new 0 0 100 100;" xml:space="preserve"><g>
	<path d="M81.5,68.8c-0.8-0.8-1.8-1.4-2.9-1.8c0.8-1.3,1.3-2.7,1.3-4.3c0-2.1-0.8-4-2.3-5.5c-0.8-0.8-1.8-1.4-2.9-1.8
		c0.8-1.3,1.3-2.7,1.3-4.3c0-2.1-0.8-4-2.3-5.5C73,44.8,72,44.2,71,43.8l6.4-6.4c3-3,3-8,0-11C76,24.9,74,24.1,72,24.1
		c-2.1,0-4,0.8-5.5,2.3L40.6,52.2l-2.3-14.9c-0.6-4.4-4.5-7.7-8.9-7.7c-3.4,0-6.2,2.8-6.2,6.2v36.5c0,5.8,2.3,11.2,6.4,15.3l6.1,6.1
		c4.1,4.1,9.5,6.3,15.3,6.3c5.4,0,10.6-2,14.6-5.6l16-14.6c1.5-1.5,2.3-3.4,2.3-5.5C83.8,72.2,83,70.2,81.5,68.8 M78.3,76.4
		L62.4,90.9c-3.1,2.9-7.2,4.4-11.5,4.4c-4.5,0-8.8-1.8-12-5l-6.1-6.1c-3.2-3.2-5-7.5-5-12.1V35.7c0-0.9,0.7-1.6,1.6-1.6
		c2.2,0,4,1.6,4.3,3.8l3,19.4c0.1,0.9,0.7,1.6,1.6,1.8c0.2,0.1,0.5,0.1,0.7,0.1c0.6,0,1.2-0.2,1.6-0.7l29-29.1
		c0.6-0.6,1.4-0.9,2.2-0.9c0.9,0,1.7,0.3,2.3,0.9c0.6,0.6,0.9,1.4,0.9,2.2c0,0.8-0.3,1.6-0.9,2.2L54.8,53.5c-0.4,0.4-0.7,1-0.7,1.6
		c0,0.6,0.2,1.2,0.7,1.6c0.4,0.4,1,0.7,1.6,0.7c0.6,0,1.2-0.2,1.6-0.7l8-8c0.6-0.6,1.4-0.9,2.2-0.9c0.8,0,1.6,0.3,2.3,0.9
		c0.6,0.6,0.9,1.4,0.9,2.2c0,0.8-0.3,1.6-0.9,2.2l-7.9,7.9c-0.4,0.4-0.7,1-0.7,1.6s0.2,1.2,0.7,1.6c0.4,0.4,1,0.7,1.6,0.7
		c0.6,0,1.2-0.2,1.6-0.7l4.1-4.1c0.6-0.6,1.4-0.9,2.2-0.9c0.9,0,1.6,0.3,2.3,0.9c0.6,0.6,0.9,1.4,0.9,2.2c0,0.8-0.3,1.6-0.9,2.2
		l-3.9,3.9l-0.3-0.1v0.4c-0.8,0.9-0.7,2.3,0.2,3.1c0.4,0.4,1,0.7,1.6,0.7c0.6,0,1.2-0.2,1.6-0.7l0.2-0.2c0.6-0.6,1.3-0.9,2.2-0.9
		c0.9,0,1.7,0.3,2.3,0.9c0.6,0.6,0.9,1.4,0.9,2.2C79.2,75.1,78.9,75.9,78.3,76.4"/>
	<path d="M45.8,12.9c1.5,0,2.7-1.2,2.7-2.7V2.7c0-1.5-1.2-2.7-2.7-2.7c-1.5,0-2.7,1.2-2.7,2.7v7.5C43.1,11.7,44.3,12.9,45.8,12.9"/>
	<path d="M58.3,19.5c0.7,0,1.4-0.3,1.9-0.8l5.3-5.3c1.1-1.1,1.1-2.8,0-3.8C65,9,64.3,8.8,63.6,8.8S62.2,9,61.7,9.5l-5.3,5.3
		c-0.5,0.5-0.8,1.2-0.8,1.9c0,0.7,0.3,1.4,0.8,1.9C56.9,19.2,57.6,19.5,58.3,19.5"/>
	<path d="M31.4,18.7c0.5,0.5,1.2,0.8,1.9,0.8c0.7,0,1.4-0.3,1.9-0.8c0.5-0.5,0.8-1.2,0.8-1.9c0-0.7-0.3-1.4-0.8-1.9L30,9.5
		C29.4,9,28.8,8.8,28,8.8c-0.7,0-1.4,0.3-1.9,0.8c-1.1,1.1-1.1,2.8,0,3.8L31.4,18.7z"/>
</g></svg>
