<?xml version="1.0" encoding="utf-8"?>
<!-- Generator: Adobe Illustrator 19.0.0, SVG Export Plug-In . SVG Version: 6.00 Build 0)  -->
<svg version="1.1" id="Layer_1" xmlns="http://www.w3.org/2000/svg" xmlns:xlink="http://www.w3.org/1999/xlink" x="0px" y="0px"
	 width="100px" height="100px" viewBox="0 0 100 100" style="enable-background:new 0 0 100 100;" xml:space="preserve"><g>
	<path d="M86,51.4l-7.1-6.1v7l3.6,3.1c3.9,3.4,6.1,8.2,6.1,13.3V100h5.3V68.7C93.9,62.1,91,55.7,86,51.4"/>
	<path d="M78.9,10.9c0-6.4-5.2-11.5-11.5-11.5h-2.1H25.4h-2.1c-6.4,0-11.5,5.2-11.5,11.5v77.6c0,6.4,5.2,11.5,11.5,11.5h37l-0.2-1.5
		c0-0.2-0.3-2-0.2-4.8H23.3c-2.9,0-5.2-2.4-5.2-5.2V10.9c0-2.9,2.4-5.2,5.2-5.2h2.1c1.7,0,3.1,1.4,3.1,3.1c0,4,3.3,7.3,7.3,7.3h18.9
		c4,0,7.3-3.3,7.3-7.3c0-1.7,1.4-3.1,3.1-3.1h2.1c2.9,0,5.2,2.4,5.2,5.2v48.3l6.3,5.9V52.3v-7V10.9z M55.9,8.8c0,0.6-0.5,1-1,1H35.9
		c-0.6,0-1-0.5-1-1c0-1.1-0.2-2.2-0.6-3.1h22.1C56.1,6.6,55.9,7.7,55.9,8.8"/>
	<path d="M68.5,55.3C67,53.9,65,53.1,63,53.1c-2.7,0-5.3,1.4-6.8,3.7c-2,3.1-1.5,7.3,1,10.1l8,9c0,0,0,0.1,0,0.1
		c-4,6.8-5.1,13.4-5.2,17.7c-0.1,2.8,0.1,4.6,0.2,4.8l0.2,1.5l5.2,0l-0.2-2.3c0,0-0.2-1.6-0.1-4c0.2-4,1.3-10.3,5.4-16.5l1.1-1.6
		c0,0,0-0.1,0-0.1L61,63.3c-0.8-1-1.1-2.4-0.5-3.5c0.5-0.9,1.5-1.4,2.5-1.4c0.7,0,1.4,0.3,2,0.8l7.7,7.2l6.3,5.9l2.2,2.1
		c0,0,0.1,0,0.1,0l3.5-3.7c0,0,0-0.1,0-0.1l-5.8-5.5l-6.3-5.9L68.5,55.3z"/>
	<path d="M59.9,49.7H30.5c-3.1,0-5.6-2.5-5.6-5.6V26.9c0-3.1,2.5-5.6,5.6-5.6h29.4c3.1,0,5.6,2.5,5.6,5.6v17.2
		C65.5,47.2,63,49.7,59.9,49.7 M30.5,24.4c-1.4,0-2.5,1.1-2.5,2.5v17.2c0,1.4,1.1,2.5,2.5,2.5h29.4c1.4,0,2.5-1.1,2.5-2.5V26.9
		c0-1.4-1.1-2.5-2.5-2.5H30.5z"/>
	<path d="M37.6,37.5h-3c-2,0-3.5-1.6-3.5-3.5v-3c0-2,1.6-3.5,3.5-3.5h3c2,0,3.5,1.6,3.5,3.5v3C41.2,35.9,39.6,37.5,37.6,37.5
		 M34.6,30.4c-0.3,0-0.5,0.2-0.5,0.5v3c0,0.3,0.2,0.5,0.5,0.5h3c0.3,0,0.5-0.2,0.5-0.5v-3c0-0.3-0.2-0.5-0.5-0.5H34.6z"/>
	<path d="M57.9,43.6H32.5c-0.8,0-1.5-0.7-1.5-1.5c0-0.8,0.7-1.5,1.5-1.5h25.3c0.8,0,1.5,0.7,1.5,1.5C59.4,42.9,58.7,43.6,57.9,43.6"
		/>
</g></svg>
